<svg width="130" height="56" viewBox="0 0 130 56" fill="none" xmlns="http://www.w3.org/2000/svg">
<path fill-rule="evenodd" clip-rule="evenodd" d="M70.4005 7.46683L61.438 9.45308V1.94947L70.4005 0V7.46683ZM89.0399 11.623C85.5406 11.623 83.2911 13.315 82.0413 14.4921L81.5771 12.2116H73.7215V55.0999L82.6483 53.1504L82.684 42.741C83.9695 43.6973 85.862 45.0583 89.0042 45.0583C95.3958 45.0583 101.216 39.7616 101.216 28.1016C101.18 17.4347 95.2886 11.623 89.0399 11.623ZM86.8967 36.9665C84.7899 36.9665 83.5402 36.194 82.6832 35.2377L82.6475 21.5914C83.5759 20.5247 84.8613 19.7891 86.8967 19.7891C90.146 19.7891 92.3955 23.5409 92.3955 28.3594C92.3955 33.2882 90.1817 36.9665 86.8967 36.9665ZM129.353 28.4694C129.353 19.0531 124.925 11.623 116.463 11.623C107.965 11.623 102.823 19.0531 102.823 28.3958C102.823 39.4673 108.893 45.0583 117.605 45.0583C121.855 45.0583 125.068 44.0651 127.496 42.6674V35.3109C125.068 36.5615 122.283 37.334 118.748 37.334C115.284 37.334 112.214 36.0834 111.821 31.743H129.282C129.282 31.5403 129.294 31.0797 129.309 30.5491C129.329 29.8282 129.353 28.9779 129.353 28.4694ZM111.713 24.975C111.713 20.8186 114.177 19.0898 116.427 19.0898C118.605 19.0898 120.926 20.8186 120.926 24.975H111.713ZM61.438 12.248H70.4005V44.4327H61.438V12.248ZM51.2621 12.2484L51.8334 14.9703C53.9401 10.9978 58.1179 11.807 59.2605 12.2484V20.7083C58.1536 20.3037 54.5828 19.7888 52.4761 22.621V44.433H43.5493V12.2484H51.2621ZM33.9795 4.2666L25.2669 6.17929L25.2312 35.642C25.2312 41.0858 29.1947 45.0951 34.4794 45.0951C37.4073 45.0951 39.5498 44.5434 40.7281 43.8813V36.4144C39.5855 36.8926 33.9438 38.5846 33.9438 33.1408V20.083H40.7281V12.2484H33.9438L33.9795 4.2666ZM12.8771 19.6048C10.9846 19.6048 9.84197 20.1566 9.84197 21.5911C9.84197 23.1573 11.8085 23.8463 14.2481 24.7011C18.2253 26.0946 23.46 27.9286 23.4821 34.7224C23.4821 41.3065 18.376 45.0951 10.9489 45.0951C7.87808 45.0951 4.52161 44.4698 1.20085 42.9985V34.2442C4.20025 35.9362 7.9852 37.1868 10.9489 37.1868C12.9485 37.1868 14.3768 36.6351 14.3768 34.9431C14.3768 33.2082 12.2451 32.4152 9.67153 31.4578C5.75219 29.9998 0.808075 28.1606 0.808075 22.0325C0.808075 15.522 5.62853 11.623 12.8771 11.623C15.8408 11.623 18.7687 12.1012 21.7324 13.315V21.9589C19.0187 20.4508 15.5908 19.6048 12.8771 19.6048Z" fill="#4D4D4D"/>
</svg>
