<svg width="152" height="47" viewBox="0 0 152 47" fill="none" xmlns="http://www.w3.org/2000/svg">
<path fill-rule="evenodd" clip-rule="evenodd" d="M46.8469 9.59716C48.1281 9.59716 49.2336 9.82725 50.1634 10.2805C51.0971 10.7377 51.869 11.3536 52.4869 12.1281C53.0969 12.9066 53.5509 13.8171 53.8441 14.8594C54.1352 15.9057 54.2813 17.0293 54.2813 18.2333C54.2813 20.081 53.9447 21.8284 53.2637 23.4747C52.5836 25.123 51.6597 26.5531 50.4851 27.773C49.3115 28.9918 47.9257 29.9518 46.3277 30.6609C44.7316 31.372 42.9974 31.7261 41.1348 31.7261C40.894 31.7261 40.4706 31.7201 39.8724 31.7062C39.2743 31.6943 38.5863 31.6329 37.8164 31.5277C37.0416 31.4196 36.2223 31.259 35.3567 31.0438C34.492 30.8325 33.6708 30.536 32.8969 30.1601L39.8122 0.964973L46.0059 0L43.5304 10.3598C44.0604 10.1198 44.5944 9.93337 45.1274 9.79849C45.6634 9.66758 46.2349 9.59716 46.8469 9.59716ZM41.6525 26.7905C42.5852 26.7905 43.4637 26.5604 44.2899 26.1072C45.118 25.655 45.8326 25.043 46.4308 24.2804C47.0289 23.5157 47.5037 22.6529 47.8492 21.6889C48.1946 20.726 48.3693 19.7213 48.3693 18.675C48.3693 17.3907 48.1561 16.388 47.7297 15.6641C47.3033 14.9421 46.5157 14.5801 45.3707 14.5801C44.9956 14.5801 44.512 14.6515 43.9128 14.7794C43.3117 14.9173 42.7738 15.1999 42.2911 15.6254L39.6547 26.6289C39.8136 26.6556 39.9548 26.6834 40.0742 26.7082C40.1917 26.735 40.321 26.7548 40.4503 26.7687C40.5875 26.7846 40.7434 26.7915 40.9319 26.7915C41.1205 26.7915 41.3593 26.7905 41.6525 26.7905Z" fill="#4D4D4D"/>
<path fill-rule="evenodd" clip-rule="evenodd" d="M60.707 31.1653H54.7906L59.7871 10.042H65.7439L60.707 31.1653ZM63.5854 7.47053C62.7593 7.47053 62.0111 7.22259 61.3468 6.7287C60.6766 6.23679 60.3449 5.4791 60.3449 4.45859C60.3449 3.89726 60.4585 3.36964 60.6835 2.87377C60.9115 2.37789 61.2106 1.94946 61.5847 1.58747C61.9588 1.22746 62.3911 0.939857 62.8826 0.722664C63.3772 0.509438 63.9032 0.40332 64.4639 0.40332C65.2891 0.40332 66.0343 0.650266 66.7005 1.14515C67.3648 1.64202 67.6994 2.39971 67.6994 3.41427C67.6994 3.97759 67.5869 4.50718 67.3589 5.00306C67.1329 5.49893 66.8348 5.92538 66.4607 6.28936C66.0905 6.64936 65.6533 6.93598 65.1627 7.15119C64.6682 7.36739 64.1451 7.47053 63.5854 7.47053Z" fill="#4D4D4D"/>
<path fill-rule="evenodd" clip-rule="evenodd" d="M70.927 4.78236L77.1237 3.81738L75.6017 10.0426H82.2376L81.0393 14.9408H74.4429L72.686 22.3304C72.5241 22.9463 72.4323 23.5215 72.4066 24.055C72.378 24.5926 72.4451 25.0537 72.605 25.4415C72.7639 25.8303 73.0502 26.1298 73.4647 26.343C73.8773 26.5582 74.4686 26.6663 75.2424 26.6663C75.88 26.6663 76.5019 26.6058 77.103 26.4838C77.7002 26.3658 78.3062 26.1992 78.9192 25.982L79.3604 30.5629C78.5609 30.8574 77.6952 31.1113 76.7625 31.3246C75.8287 31.5398 74.7222 31.6439 73.444 31.6439C71.6061 31.6439 70.1808 31.3712 69.1662 30.8247C68.1525 30.2743 67.4359 29.5235 67.0065 28.5725C66.5831 27.6253 66.3945 26.5324 66.4478 25.3017C66.5031 24.0679 66.6877 22.7707 67.0065 21.4051L70.927 4.78236Z" fill="#4D4D4D"/>
<path fill-rule="evenodd" clip-rule="evenodd" d="M81.9773 22.7342C81.9773 20.9144 82.2705 19.1997 82.8568 17.592C83.4411 15.9844 84.284 14.5791 85.3777 13.3721C86.4674 12.1711 87.794 11.22 89.3555 10.5228C90.9101 9.82763 92.6503 9.47754 94.5691 9.47754C95.7693 9.47754 96.8423 9.5906 97.7859 9.81969C98.7334 10.0498 99.5912 10.3483 100.366 10.7222L98.3258 15.3844C97.7928 15.1672 97.2391 14.9758 96.6676 14.8012C96.0951 14.6247 95.3962 14.5394 94.5701 14.5394C92.596 14.5394 91.0345 15.2227 89.8727 16.5854C88.7159 17.9501 88.1325 19.7858 88.1325 22.0896C88.1325 23.4553 88.4257 24.5581 89.014 25.403C89.5993 26.247 90.6801 26.6665 92.2505 26.6665C93.0253 26.6665 93.7725 26.5852 94.4891 26.4265C95.2107 26.2659 95.8473 26.0645 96.4089 25.8245L96.8502 30.6028C96.102 30.8954 95.2768 31.1592 94.3717 31.3892C93.4646 31.6124 92.3848 31.7264 91.1322 31.7264C89.4799 31.7264 88.0802 31.4845 86.9362 31.0054C85.7913 30.5195 84.8447 29.8739 84.0995 29.0567C83.3503 28.2375 82.8124 27.2804 82.4797 26.1826C82.1461 25.0887 81.9773 23.9362 81.9773 22.7342H81.9773Z" fill="#4D4D4D"/>
<path fill-rule="evenodd" clip-rule="evenodd" d="M108.256 31.7274C106.844 31.7274 105.618 31.5122 104.577 31.0848C103.54 30.6563 102.681 30.0563 102.001 29.2778C101.321 28.5033 100.811 27.5849 100.462 26.5277C100.113 25.4715 99.9461 24.3002 99.9461 23.0179C99.9461 21.4083 100.204 19.7996 100.723 18.195C101.24 16.5884 102.007 15.1444 103.024 13.8601C104.032 12.5738 105.274 11.5225 106.739 10.7023C108.201 9.88909 109.884 9.47949 111.773 9.47949C113.159 9.47949 114.38 9.69569 115.434 10.1231C116.483 10.5516 117.348 11.1556 118.032 11.9301C118.708 12.7086 119.222 13.623 119.568 14.6822C119.916 15.7364 120.087 16.9107 120.087 18.194C120.087 19.7987 119.833 21.4073 119.33 23.0169C118.825 24.6176 118.078 26.0655 117.091 27.3518C116.106 28.6361 114.874 29.6864 113.395 30.5036C111.915 31.3188 110.201 31.7274 108.256 31.7274ZM111.212 14.54C110.335 14.54 109.56 14.7959 108.896 15.3017C108.229 15.8125 107.67 16.4551 107.219 17.2297C106.763 18.0072 106.424 18.8581 106.196 19.7795C105.97 20.7048 105.858 21.5785 105.858 22.4096C105.858 23.7494 106.074 24.7927 106.496 25.5445C106.925 26.2913 107.695 26.6671 108.816 26.6671C109.696 26.6671 110.467 26.4133 111.135 25.9025C111.798 25.3957 112.357 24.7531 112.812 23.9765C113.265 23.203 113.607 22.3501 113.835 21.4267C114.059 20.5044 114.172 19.6257 114.172 18.7966C114.172 17.4597 113.958 16.4144 113.532 15.6637C113.105 14.9149 112.332 14.54 111.212 14.54Z" fill="#4D4D4D"/>
<path fill-rule="evenodd" clip-rule="evenodd" d="M126.532 31.1653H120.612L125.609 10.042H131.568L126.532 31.1653ZM129.406 7.47053C128.581 7.47053 127.833 7.22259 127.17 6.7287C126.503 6.23679 126.168 5.4791 126.168 4.45859C126.168 3.89726 126.282 3.36964 126.509 2.87377C126.735 2.37789 127.035 1.94946 127.409 1.58747C127.781 1.22746 128.217 0.939857 128.708 0.722664C129.199 0.509438 129.725 0.40332 130.285 0.40332C131.112 0.40332 131.859 0.650266 132.525 1.14515C133.191 1.64202 133.526 2.39971 133.526 3.41427C133.526 3.97759 133.407 4.50718 133.183 5.00306C132.959 5.49893 132.66 5.92538 132.287 6.28936C131.912 6.64936 131.481 6.93598 130.99 7.15119C130.494 7.36739 129.969 7.47053 129.406 7.47053Z" fill="#4D4D4D"/>
<path fill-rule="evenodd" clip-rule="evenodd" d="M135.828 11.0056C136.277 10.8737 136.779 10.715 137.325 10.5424C137.873 10.3698 138.484 10.2092 139.167 10.0644C139.843 9.91562 140.605 9.79562 141.444 9.70041C142.283 9.60521 143.237 9.55859 144.3 9.55859C147.419 9.55859 149.571 10.471 150.758 12.2919C151.944 14.1127 152.15 16.604 151.379 19.7607L148.659 31.1659H142.704L145.342 20.0007C145.501 19.3035 145.629 18.6291 145.722 17.9706C145.816 17.319 145.81 16.7438 145.701 16.246C145.597 15.7541 145.348 15.3524 144.964 15.04C144.574 14.7316 143.983 14.5788 143.183 14.5788C142.412 14.5788 141.627 14.6621 140.826 14.8228L136.948 31.1659H130.991L135.828 11.0056Z" fill="#4D4D4D"/>
<path fill-rule="evenodd" clip-rule="evenodd" d="M64.3497 43.755L63.189 45.8734H61.9334C62.8178 44.2707 63.6805 42.795 64.5215 41.4462C65.3624 40.0974 66.1935 38.824 67.0148 37.626H68.14C68.2584 38.221 68.367 38.823 68.4657 39.429C68.5644 40.0359 68.6611 40.6726 68.7559 41.3391C68.8507 42.0055 68.9415 42.7127 69.0283 43.4585C69.1152 44.2043 69.206 45.0086 69.3007 45.8744H68.14C68.1005 45.5173 68.065 45.1583 68.0334 44.7973C68.0018 44.4363 67.9663 44.0892 67.9268 43.756H64.3497V43.755ZM67.8203 42.826C67.7571 42.1843 67.6841 41.5447 67.6012 40.9099C67.5183 40.2752 67.4215 39.6207 67.311 38.9463C67.0346 39.3509 66.6911 39.8736 66.2805 40.5113C65.8699 41.1509 65.404 41.9215 64.8828 42.826H67.8203Z" fill="#4D4D4D"/>
<path fill-rule="evenodd" clip-rule="evenodd" d="M73.4985 46.0509C72.9853 46.0509 72.5332 45.9755 72.1423 45.8248C71.7515 45.674 71.4257 45.4598 71.1652 45.1821C70.9046 44.9054 70.7091 44.5692 70.5789 44.1765C70.4486 43.7838 70.3834 43.3414 70.3834 42.8495C70.3834 42.1355 70.4959 41.4531 70.721 40.8026C70.946 40.153 71.2658 39.5777 71.6804 39.0779C72.095 38.5781 72.5944 38.1794 73.1787 37.8809C73.7631 37.5833 74.4135 37.4346 75.1331 37.4346C75.749 37.4346 76.2406 37.498 76.6077 37.625C76.9749 37.7519 77.2375 37.8709 77.3954 37.982L76.9216 38.9341C76.739 38.8151 76.4932 38.702 76.1813 38.5949C75.8694 38.4888 75.5003 38.4343 75.0739 38.4343C74.529 38.4343 74.0394 38.5632 73.6051 38.822C73.1708 39.0799 72.8037 39.4131 72.5036 39.8217C72.2035 40.2303 71.9745 40.6905 71.8166 41.2022C71.6587 41.714 71.5797 42.2198 71.5797 42.7196C71.5797 44.2667 72.247 45.0403 73.5815 45.0403C73.8657 45.0403 74.1204 45.0195 74.3454 44.9798C74.5705 44.9411 74.7699 44.8945 74.9436 44.843C75.1173 44.7914 75.2713 44.7348 75.4055 44.6704C75.5398 44.6069 75.6582 44.5514 75.7609 44.5038L75.903 45.5035C75.8082 45.559 75.6839 45.6185 75.5299 45.682C75.3759 45.7454 75.1963 45.8049 74.991 45.8615C74.7857 45.917 74.5567 45.9626 74.304 45.9983C74.0513 46.034 73.7828 46.0509 73.4985 46.0509Z" fill="#4D4D4D"/>
<path fill-rule="evenodd" clip-rule="evenodd" d="M80.1534 46.0509C79.6401 46.0509 79.1881 45.9755 78.7972 45.8248C78.4063 45.674 78.0806 45.4598 77.82 45.1821C77.5594 44.9054 77.364 44.5692 77.2337 44.1765C77.1034 43.7838 77.0383 43.3414 77.0383 42.8495C77.0383 42.1355 77.1508 41.4531 77.3758 40.8026C77.6009 40.153 77.9207 39.5777 78.3353 39.0779C78.7498 38.5781 79.2493 38.1794 79.8336 37.8809C80.4179 37.5833 81.0684 37.4346 81.788 37.4346C82.4039 37.4346 82.8954 37.498 83.2626 37.625C83.6298 37.7519 83.8923 37.8709 84.0503 37.982L83.5765 38.9341C83.3939 38.8151 83.1481 38.702 82.8362 38.5949C82.5243 38.4888 82.1551 38.4343 81.7287 38.4343C81.1839 38.4343 80.6943 38.5632 80.26 38.822C79.8257 39.0799 79.4585 39.4131 79.1585 39.8217C78.8584 40.2303 78.6294 40.6905 78.4715 41.2022C78.3135 41.714 78.2346 42.2198 78.2346 42.7196C78.2346 44.2667 78.9018 45.0403 80.2363 45.0403C80.5206 45.0403 80.7752 45.0195 81.0003 44.9798C81.2253 44.9411 81.4247 44.8945 81.5984 44.843C81.7722 44.7914 81.9261 44.7348 82.0604 44.6704C82.1946 44.6069 82.3131 44.5514 82.4157 44.5038L82.5579 45.5035C82.4631 45.559 82.3387 45.6185 82.1847 45.682C82.0308 45.7454 81.8511 45.8049 81.6458 45.8615C81.4405 45.917 81.2115 45.9626 80.9588 45.9983C80.7061 46.034 80.4377 46.0509 80.1534 46.0509Z" fill="#4D4D4D"/>
<path fill-rule="evenodd" clip-rule="evenodd" d="M83.3337 45.8724L85.2999 37.625H90.1443L89.9193 38.589H86.2119L85.6197 41.0763H88.9125L88.6874 42.0165H85.4065L84.7077 44.9084H88.6874L88.4624 45.8724H83.3337H83.3337Z" fill="#4D4D4D"/>
<path fill-rule="evenodd" clip-rule="evenodd" d="M93.5729 37.542C94.5284 37.542 95.2489 37.7245 95.7346 38.0894C96.2202 38.4544 96.463 38.986 96.463 39.6842C96.463 40.2237 96.3623 40.6908 96.161 41.0825C95.9596 41.4753 95.6734 41.7986 95.3022 42.0535C94.9311 42.3073 94.485 42.4948 93.9638 42.6178C93.4427 42.7407 92.8623 42.8032 92.2227 42.8032H91.4054L90.671 45.8737H89.5221L91.4646 37.7334C91.7963 37.6541 92.1477 37.6025 92.5188 37.5787C92.8899 37.5539 93.2413 37.542 93.5729 37.542ZM93.4303 38.5195C92.8697 38.5195 92.5301 38.5354 92.4117 38.5671L91.6299 41.8399H92.3761C92.7078 41.8399 93.0473 41.8112 93.3948 41.7507C93.7422 41.6912 94.0541 41.586 94.3305 41.4363C94.6069 41.2855 94.8339 41.0773 95.0116 40.8105C95.1892 40.5447 95.2781 40.2025 95.2781 39.782C95.2781 39.3298 95.1122 39.0065 94.7806 38.8111C94.4489 38.6167 93.9989 38.5195 93.4303 38.5195Z" fill="#4D4D4D"/>
<path fill-rule="evenodd" clip-rule="evenodd" d="M103.47 37.625L103.245 38.589H100.77L99.0286 45.8724H97.8797L99.6209 38.589H97.1453L97.3704 37.625H103.47Z" fill="#4D4D4D"/>
<path fill-rule="evenodd" clip-rule="evenodd" d="M102.404 45.8724L104.371 37.625H109.215L108.99 38.589H105.283L104.69 41.0763H107.983L107.758 42.0165H104.477L103.778 44.9084H107.758L107.533 45.8724H102.404H102.404Z" fill="#4D4D4D"/>
<path fill-rule="evenodd" clip-rule="evenodd" d="M112.626 37.542C113.842 37.542 114.75 37.8296 115.351 38.4048C115.951 38.98 116.251 39.7556 116.251 40.7315C116.251 41.4138 116.144 42.0703 115.931 42.7001C115.718 43.3318 115.386 43.8882 114.936 44.3732C114.486 44.8561 113.911 45.2419 113.213 45.5276C112.514 45.8132 111.679 45.956 110.708 45.956C110.376 45.956 110.017 45.9401 109.63 45.9084C109.243 45.8767 108.903 45.8211 108.611 45.7418L110.518 37.7324C110.85 37.6531 111.201 37.6015 111.572 37.5777C111.943 37.5539 112.295 37.542 112.626 37.542ZM112.531 38.5195C111.939 38.5195 111.584 38.5354 111.465 38.5671L109.949 44.9223C110.012 44.9381 110.119 44.952 110.269 44.9639C110.419 44.9758 110.664 44.9818 111.003 44.9818C111.627 44.9818 112.19 44.8776 112.691 44.6674C113.193 44.4571 113.617 44.1636 113.965 43.7857C114.312 43.4089 114.581 42.9616 114.77 42.4419C114.96 41.9222 115.054 41.353 115.054 40.7341C115.054 40.0359 114.853 39.4924 114.45 39.1027C114.048 38.7149 113.408 38.5195 112.531 38.5195Z" fill="#4D4D4D"/>
<path fill-rule="evenodd" clip-rule="evenodd" d="M125.098 45.8724H123.949L124.861 42.0403H121.059L120.147 45.8724H118.998L120.965 37.625H122.114L121.284 41.0763H125.087L125.917 37.625H127.066L125.098 45.8724Z" fill="#4D4D4D"/>
<path fill-rule="evenodd" clip-rule="evenodd" d="M126.911 45.8724L128.877 37.625H133.721L133.495 38.589H129.788L129.196 41.0763H132.489L132.263 42.0165H128.982L128.284 44.9084H132.263L132.037 45.8724H126.911H126.911Z" fill="#4D4D4D"/>
<path fill-rule="evenodd" clip-rule="evenodd" d="M137.15 37.542C138.027 37.542 138.722 37.7205 139.235 38.0775C139.748 38.4346 140.004 38.9582 140.004 39.6475C140.004 40.3457 139.802 40.9318 139.395 41.4039C138.988 41.8759 138.418 42.2151 137.683 42.4204C137.778 42.588 137.889 42.8003 138.015 43.0581C138.141 43.316 138.272 43.6016 138.406 43.915C138.539 44.2274 138.67 44.5537 138.797 44.8899C138.923 45.2281 139.033 45.5543 139.128 45.8717H137.956C137.846 45.5702 137.731 45.2648 137.612 44.9553C137.495 44.6459 137.373 44.3484 137.252 44.0627C137.129 43.7771 137.007 43.5094 136.884 43.2594C136.762 43.0095 136.649 42.7884 136.546 42.5989C136.444 42.6069 136.341 42.6128 136.238 42.6168C136.136 42.6207 136.034 42.6227 135.93 42.6227H135.018L134.248 45.8717H133.1L135.043 37.7314C135.375 37.6521 135.725 37.6005 136.097 37.5767C136.467 37.5539 136.819 37.542 137.15 37.542ZM137.008 38.5195C136.447 38.5195 136.108 38.5354 135.988 38.5671L135.242 41.6862H135.942C136.266 41.6862 136.597 41.6624 136.937 41.6148C137.276 41.5672 137.586 41.474 137.866 41.3351C138.146 41.1963 138.375 41.0019 138.553 40.752C138.73 40.502 138.82 40.1708 138.82 39.7582C138.82 39.3139 138.652 38.9966 138.317 38.8061C137.981 38.6147 137.544 38.5195 137.008 38.5195Z" fill="#4D4D4D"/>
<path fill-rule="evenodd" clip-rule="evenodd" d="M140.092 45.8724L142.058 37.625H146.903L146.677 38.589H142.969L142.377 41.0763H145.67L145.444 42.0165H142.163L141.465 44.9084H145.444L145.218 45.8724H140.092H140.092Z" fill="#4D4D4D"/>
<path fill-rule="evenodd" clip-rule="evenodd" d="M16.3606 31.7261C25.0795 31.7261 32.1475 24.6244 32.1475 15.864C32.1475 7.10364 25.0795 0.00195312 16.3606 0.00195312C7.6418 0.00195312 0.573792 7.10364 0.573792 15.864C0.573792 24.6244 7.6418 31.7261 16.3606 31.7261ZM23.3217 13.6022C23.6356 11.4908 22.0356 10.3563 19.8483 9.59855L20.558 6.73735L18.8257 6.30297L18.1348 9.08879C17.6797 8.97474 17.2119 8.86664 16.746 8.76052L17.4419 5.95685L15.7106 5.52246L14.9999 8.38267C14.6228 8.29639 14.2527 8.21109 13.8934 8.12085L13.8954 8.11192L11.5057 7.5129L11.0448 9.37243C11.0448 9.37243 12.3299 9.66798 12.3033 9.68682C13.0051 9.86335 13.1324 10.3295 13.1107 10.6994L12.3023 13.9573C12.3507 13.9692 12.4128 13.9861 12.4829 14.0158C12.4247 13.9999 12.3635 13.9851 12.2993 13.9692L11.1662 18.5352C11.0803 18.7484 10.8622 19.0698 10.3716 18.9478C10.3894 18.9726 9.11216 18.6324 9.11216 18.6324L8.25145 20.6258L10.5059 21.1901C10.9254 21.2953 11.337 21.4063 11.7407 21.5105L11.0241 24.4034L12.7544 24.8378L13.465 21.9756C13.9378 22.1035 14.3968 22.2235 14.8459 22.3356L14.1382 25.1839L15.8705 25.6183L16.5881 22.7313C19.5433 23.2926 21.7651 23.0665 22.6999 20.3809C23.454 18.2179 22.6623 16.9712 21.1077 16.158C22.2409 15.8962 23.0937 15.1484 23.3217 13.6022ZM19.362 19.1808C18.826 21.3428 15.2036 20.1735 14.029 19.88L14.9805 16.0479C16.1551 16.3424 19.9216 16.9256 19.362 19.1808ZM19.8982 13.5715C19.4096 15.5371 16.3942 14.5384 15.416 14.2944L16.2787 10.8174C17.2568 11.0633 20.4065 11.5205 19.8982 13.5715Z" fill="white" fill-opacity="0.33"/>
</svg>
