<svg width="178" height="43" viewBox="0 0 178 43" fill="none" xmlns="http://www.w3.org/2000/svg">
<path fill-rule="evenodd" clip-rule="evenodd" d="M55.039 20.9999C55.039 29.4328 61.5957 35.9714 70.0336 35.9714C72.4185 35.9714 74.4622 35.4981 76.981 34.2999V27.7126C74.7662 29.9516 72.8038 30.8549 70.2915 30.8549C64.7105 30.8549 60.7495 26.7682 60.7495 20.9578C60.7495 15.4501 64.8356 11.105 70.0336 11.105C72.6765 11.105 74.6773 12.0572 76.981 14.3328V7.74872C74.5489 6.50285 72.5491 5.98633 70.1642 5.98633C61.7691 5.98633 55.039 12.6579 55.039 20.9999ZM40.8189 14.0321C40.8189 15.5827 41.7946 16.4019 45.1202 17.6444C51.4233 19.9732 53.2914 22.036 53.2914 26.595C53.2914 32.1482 49.2513 36.0155 43.4936 36.0155C39.2769 36.0155 36.2103 34.3384 33.6575 30.5531L37.2376 27.0716C38.513 29.5633 40.6422 30.899 43.2851 30.899C45.7578 30.899 47.5874 29.1765 47.5874 26.8521C47.5874 25.6473 47.0332 24.6131 45.9258 23.8826C45.3693 23.5368 44.2652 23.0225 42.0953 22.2488C36.8908 20.3578 35.1062 18.3339 35.1062 14.3812C35.1062 9.68593 38.9399 6.16113 43.9667 6.16113C47.0815 6.16113 49.9318 7.23631 52.3145 9.34121L49.4148 13.1752C47.9716 11.5414 46.6062 10.852 44.9468 10.852C42.5585 10.852 40.8189 12.2253 40.8189 14.0321ZM26.0291 35.3252H31.5706V6.63477H26.0291V35.3252ZM14.703 28.1879C12.9623 29.7762 10.7003 30.469 7.1201 30.469H5.63294V11.4961H7.1201C10.7003 11.4961 12.8734 12.1434 14.703 13.8171C16.6193 15.5396 17.7717 18.2109 17.7717 20.9587C17.7717 23.7132 16.6193 26.4654 14.703 28.1879ZM8.2294 6.63574H0.09552V35.3251H8.18659C12.489 35.3251 15.595 34.3009 18.3224 32.0131C21.5634 29.3053 23.4797 25.2229 23.4797 21.0009C23.4797 12.5337 17.2161 6.63574 8.2294 6.63574ZM113.342 6.63477L120.918 25.9058L128.592 6.63477H134.598L122.326 36.0612H119.344L107.288 6.63477H113.342ZM137.105 35.3252H152.819V30.4681H142.642V22.7236H152.445V17.8642H142.642V11.4963H152.819V6.63477H137.105V35.3252ZM162.023 19.8432H163.642C167.181 19.8432 169.057 18.2903 169.057 15.4062C169.057 12.6141 167.181 11.1543 163.729 11.1543H162.023V19.8432ZM164.705 6.63477C171.095 6.63477 174.759 9.73392 174.759 15.1053C174.759 19.498 172.461 22.3822 168.287 23.239L177.231 35.3252H170.416L162.746 23.7998H162.023V35.3252H156.488V6.63477H164.705Z" fill="#4D4D4D"/>
<path fill-rule="evenodd" clip-rule="evenodd" d="M106.634 29.3027C111.132 22.2003 109.078 12.7649 102.046 8.22324C95.0143 3.68164 85.6697 5.75496 81.1721 12.8574C76.6757 19.958 78.7305 29.3965 85.7622 33.9381C92.794 38.4797 102.138 36.4033 106.634 29.3027Z" fill="white" fill-opacity="0.41"/>
</svg>
