<svg width="125" height="46" viewBox="0 0 125 46" fill="none" xmlns="http://www.w3.org/2000/svg">
<path fill-rule="evenodd" clip-rule="evenodd" d="M0.0323486 41.4196L1.31385 41.2888C1.39089 41.7262 1.54745 42.0469 1.78312 42.2524C2.01921 42.4575 2.33731 42.5598 2.73783 42.5598C3.16195 42.5598 3.48129 42.4688 3.69667 42.2868C3.91163 42.1044 4.01891 41.8914 4.01891 41.6473C4.01891 41.4909 3.97376 41.358 3.88388 41.2477C3.79359 41.1378 3.6362 41.0426 3.4113 40.9609C3.25722 40.9076 2.90681 40.812 2.35967 40.6745C1.65514 40.4983 1.16143 40.2811 0.877292 40.0232C0.478015 39.6609 0.278376 39.219 0.278376 38.6973C0.278376 38.3623 0.372397 38.0482 0.560853 37.7563C0.748894 37.4641 1.0206 37.2414 1.37473 37.0888C1.72928 36.9361 2.15713 36.8594 2.6583 36.8594C3.47674 36.8594 4.09263 37.0418 4.50641 37.4058C4.92018 37.7702 5.13722 38.2562 5.15793 38.8642L3.83791 38.9166C3.78158 38.577 3.66064 38.3329 3.47508 38.1836C3.28994 38.0348 3.01202 37.9601 2.64132 37.9601C2.25861 37.9601 1.95957 38.0398 1.74295 38.1991C1.60336 38.301 1.53378 38.4377 1.53378 38.6088C1.53378 38.7652 1.59922 38.8986 1.72969 39.0101C1.89537 39.151 2.29837 39.2982 2.93871 39.4504C3.57863 39.6031 4.05204 39.7612 4.35896 39.9255C4.66546 40.0895 4.90569 40.3138 5.07923 40.5981C5.25236 40.8833 5.33934 41.2347 5.33934 41.6532C5.33934 42.0331 5.23538 42.3883 5.02746 42.7196C4.81953 43.0508 4.52588 43.297 4.14606 43.458C3.76625 43.619 3.29284 43.7 2.72581 43.7C1.90075 43.7 1.26704 43.5058 0.82469 43.1175C0.382752 42.7292 0.1185 42.1635 0.0323486 41.4196Z" fill="#4A4A4A"/>
<path fill-rule="evenodd" clip-rule="evenodd" d="M6.70752 38.7988H7.96292V43.5817H6.70752V38.7988ZM6.70752 36.9775H7.96292V38.1441H6.70752V36.9775Z" fill="#4A4A4A"/>
<path fill-rule="evenodd" clip-rule="evenodd" d="M13.823 43.5814H12.5676V41.135C12.5676 40.6176 12.5407 40.2829 12.4876 40.1311C12.4342 39.9793 12.3481 39.8607 12.2284 39.7764C12.1087 39.6925 11.9645 39.6502 11.7964 39.6502C11.5806 39.6502 11.3871 39.7105 11.2157 39.8309C11.0442 39.9512 10.927 40.1106 10.8636 40.3094C10.7998 40.5077 10.7683 40.8746 10.7683 41.4105V43.5814H9.51294V38.7985H10.6776V39.5013C11.0898 38.9541 11.6091 38.6807 12.2346 38.6807C12.5104 38.6807 12.7627 38.7314 12.9909 38.832C13.2191 38.9327 13.3918 39.0614 13.509 39.2178C13.6262 39.3742 13.7078 39.5516 13.7538 39.7504C13.7998 39.9487 13.823 40.233 13.823 40.6029V43.5814Z" fill="#4A4A4A"/>
<path fill-rule="evenodd" clip-rule="evenodd" d="M16.3622 41.087C16.3622 41.5961 16.4583 41.9689 16.6513 42.205C16.8439 42.4419 17.0816 42.5597 17.3645 42.5597C17.6673 42.5597 17.9233 42.4385 18.1324 42.1962C18.3412 41.9538 18.446 41.5944 18.446 41.1185C18.446 40.622 18.3457 40.253 18.1457 40.0119C17.9452 39.7712 17.6926 39.6504 17.3865 39.6504C17.0891 39.6504 16.8439 39.7691 16.6513 40.0051C16.4583 40.2421 16.3622 40.6023 16.3622 41.087ZM15.2358 43.8959L16.6594 44.0532C16.6834 44.2314 16.7385 44.3538 16.8247 44.4209C16.9439 44.5165 17.1316 44.5643 17.3875 44.5643C17.7152 44.5643 17.9608 44.5148 18.1248 44.4159C18.2345 44.3496 18.3182 44.2431 18.375 44.0959C18.4135 43.9903 18.4329 43.7969 18.4329 43.5143L18.4367 42.8161C18.0664 43.3265 17.5967 43.5814 17.0268 43.5814C16.391 43.5814 15.8882 43.3097 15.5171 42.765C15.2259 42.3347 15.0805 41.7988 15.0805 41.1581C15.0805 40.3546 15.271 39.7412 15.6525 39.3168C16.034 38.8928 16.5086 38.6807 17.0757 38.6807C17.6605 38.6807 18.143 38.9411 18.5232 39.461V38.7985H19.6883V43.0979C19.6883 43.6636 19.6424 44.0863 19.55 44.3656C19.4581 44.6457 19.3288 44.865 19.1623 45.0243C18.9958 45.1837 18.7738 45.3086 18.4959 45.3988C18.218 45.489 17.8668 45.5342 17.4422 45.5342C16.6399 45.5342 16.0708 45.3942 15.7349 45.1145C15.399 44.8348 15.2313 44.48 15.2313 44.0502C15.2313 44.0079 15.2329 43.9567 15.2358 43.8959Z" fill="#4A4A4A"/>
<path fill-rule="evenodd" clip-rule="evenodd" d="M21.1917 36.9775H22.4471V43.582H21.1917V36.9775Z" fill="#4A4A4A"/>
<path fill-rule="evenodd" clip-rule="evenodd" d="M26.8182 40.7906C26.8095 40.4182 26.7155 40.1356 26.5361 39.9414C26.3572 39.7477 26.1393 39.6504 25.8825 39.6504C25.6079 39.6504 25.3809 39.7531 25.202 39.9573C25.0227 40.1616 24.9349 40.4396 24.9378 40.7906H26.8182ZM26.7535 42.0747L27.9961 42.2844C27.8354 42.7453 27.5815 43.0967 27.2348 43.3378C26.8881 43.5793 26.4541 43.6997 25.9334 43.6997C25.1088 43.6997 24.4987 43.4267 24.1031 42.8811C23.7904 42.4442 23.6343 41.8928 23.6343 41.226C23.6343 40.431 23.8393 39.8074 24.2502 39.3566C24.6606 38.9058 25.1796 38.6807 25.8071 38.6807C26.5125 38.6807 27.0687 38.9172 27.4763 39.3898C27.8838 39.8632 28.0785 40.5874 28.0607 41.5636H24.9158C24.9245 41.9401 25.0264 42.2328 25.221 42.4425C25.4157 42.6513 25.6584 42.7562 25.9492 42.7562C26.1467 42.7562 26.3132 42.7025 26.4479 42.5947C26.5825 42.4874 26.6848 42.3138 26.7535 42.0747Z" fill="#4A4A4A"/>
<path fill-rule="evenodd" clip-rule="evenodd" d="M32.1679 43.582V36.9775H36.9961V38.0917H33.4883V39.5594H36.7501V40.6731H33.4883V42.4683H37.1253V43.582H32.1679Z" fill="#4A4A4A"/>
<path fill-rule="evenodd" clip-rule="evenodd" d="M41.6135 43.5817V42.8655C41.4408 43.1209 41.2143 43.3239 40.933 43.4744C40.6518 43.6245 40.3552 43.7 40.0429 43.7C39.7244 43.7 39.4395 43.6291 39.1864 43.4878C38.9337 43.3465 38.7507 43.1477 38.6376 42.8924C38.5245 42.6366 38.4682 42.2831 38.4682 41.8319V38.7988H39.7236V40.9986C39.7236 41.6721 39.7464 42.0847 39.7928 42.2361C39.8387 42.3887 39.9224 42.5087 40.0442 42.5976C40.166 42.686 40.32 42.7301 40.5072 42.7301C40.721 42.7301 40.9127 42.6714 41.0817 42.5523C41.2511 42.4336 41.3667 42.2864 41.4292 42.1103C41.4914 41.9346 41.5228 41.5039 41.5228 40.8188V38.7988H42.7782V43.5817H41.6135Z" fill="#4A4A4A"/>
<path fill-rule="evenodd" clip-rule="evenodd" d="M45.5368 43.5814H44.2814V38.7985H45.4461V39.4787C45.6454 39.1574 45.8243 38.9444 45.9833 38.8388C46.1424 38.7335 46.3226 38.6807 46.5247 38.6807C46.8096 38.6807 47.0847 38.7608 47.3489 38.9205L46.967 40.028C46.7558 39.89 46.5586 39.8208 46.3772 39.8208C46.2012 39.8208 46.0525 39.8699 45.9303 39.9672C45.8081 40.0653 45.712 40.2418 45.642 40.4972C45.572 40.7526 45.5368 41.2881 45.5368 42.1024V43.5814Z" fill="#4A4A4A"/>
<path fill-rule="evenodd" clip-rule="evenodd" d="M49.1368 41.1898C49.1368 41.6666 49.2482 42.031 49.4714 42.2842C49.6947 42.5375 49.9697 42.6641 50.2973 42.6641C50.6245 42.6641 50.8992 42.5375 51.1207 42.2842C51.3423 42.031 51.4533 41.6632 51.4533 41.181C51.4533 40.7109 51.3423 40.3486 51.1207 40.0957C50.8992 39.8425 50.6245 39.7158 50.2973 39.7158C49.9697 39.7158 49.6947 39.8425 49.4714 40.0957C49.2482 40.3486 49.1368 40.7138 49.1368 41.1898ZM47.855 41.122C47.855 40.7002 47.9573 40.2917 48.1624 39.8967C48.367 39.5021 48.6569 39.2006 49.0326 38.9926C49.4078 38.7847 49.8274 38.6807 50.2905 38.6807C51.0058 38.6807 51.5918 38.9163 52.0491 39.3881C52.506 39.8598 52.7346 40.4561 52.7346 41.1765C52.7346 41.9028 52.5035 42.5054 52.0421 42.983C51.5807 43.4606 50.9996 43.6997 50.2992 43.6997C49.8659 43.6997 49.4526 43.5999 49.0595 43.4015C48.666 43.2023 48.367 42.9109 48.1624 42.5264C47.9573 42.1418 47.855 41.6743 47.855 41.122Z" fill="#4A4A4A"/>
<path fill-rule="evenodd" clip-rule="evenodd" d="M58.1422 38.0918V39.9788H58.8612C59.379 39.9788 59.7252 39.9444 59.9 39.8748C60.0744 39.8052 60.2115 39.6962 60.3105 39.5477C60.4095 39.3997 60.4592 39.2274 60.4592 39.0307C60.4592 38.7887 60.3896 38.5891 60.2504 38.4319C60.1112 38.2746 59.9352 38.1765 59.7223 38.1371C59.5653 38.1069 59.2506 38.0918 58.7767 38.0918H58.1422ZM56.8223 43.582V36.9775H58.9355C59.7361 36.9775 60.2584 37.0111 60.5016 37.0769C60.8752 37.1759 61.1879 37.3918 61.4401 37.724C61.6924 38.0556 61.8183 38.4846 61.8183 39.0105C61.8183 39.416 61.7458 39.7565 61.6004 40.0336C61.4554 40.3096 61.2707 40.5268 61.047 40.6844C60.8234 40.8425 60.596 40.9465 60.3649 40.9977C60.0505 41.061 59.5957 41.0925 59.0005 41.0925H58.1423V43.582H56.8223Z" fill="#4A4A4A"/>
<path fill-rule="evenodd" clip-rule="evenodd" d="M65.7627 41.2881C65.6024 41.3426 65.3494 41.4072 65.0031 41.4827C64.6569 41.5577 64.4303 41.6319 64.3243 41.7041C64.1611 41.8219 64.0803 41.9712 64.0803 42.1519C64.0803 42.3301 64.1449 42.4836 64.275 42.6136C64.4054 42.7432 64.5711 42.8082 64.7728 42.8082C64.9977 42.8082 65.2119 42.7327 65.4165 42.5822C65.5672 42.4673 65.6666 42.3272 65.7139 42.1611C65.7462 42.0525 65.7627 41.8458 65.7627 41.5409V41.2881ZM64.0805 40.2532L62.9543 40.0435C63.0819 39.5801 63.3014 39.2375 63.6129 39.0149C63.9248 38.7922 64.3879 38.6807 65.0021 38.6807C65.56 38.6807 65.9758 38.7478 66.2488 38.8811C66.5217 39.0157 66.7143 39.1855 66.8253 39.3914C66.9368 39.5973 66.9927 39.976 66.9927 40.5266L66.9798 42.0068C66.9798 42.4278 66.9997 42.739 67.0395 42.9386C67.0797 43.1386 67.1546 43.3529 67.2644 43.5814H66.0218C65.9887 43.4988 65.9489 43.3759 65.9013 43.2132C65.8806 43.139 65.8657 43.0904 65.8574 43.0665C65.6437 43.2774 65.4155 43.4359 65.1723 43.5416C64.9292 43.6468 64.6703 43.6997 64.3945 43.6997C63.9082 43.6997 63.5247 43.5655 63.2447 43.2979C62.9647 43.03 62.8247 42.6912 62.8247 42.2819C62.8247 42.0114 62.8885 41.7699 63.0156 41.5577C63.1436 41.3455 63.3226 41.1828 63.5524 41.07C63.7827 40.9576 64.1145 40.8583 64.5477 40.774C65.1321 40.6628 65.5372 40.5593 65.763 40.4628V40.3349C65.763 40.0884 65.7033 39.9127 65.584 39.8074C65.4643 39.7026 65.2394 39.6502 64.9081 39.6502C64.6844 39.6502 64.51 39.695 64.3845 39.7839C64.259 39.8732 64.1576 40.0297 64.0805 40.2532Z" fill="#4A4A4A"/>
<path fill-rule="evenodd" clip-rule="evenodd" d="M67.894 38.7988H69.2268L70.3596 42.1946L71.4664 38.7988H72.7607L70.7916 44.243C70.6815 44.5231 70.5767 44.7366 70.4773 44.8842C70.3779 45.0314 70.2631 45.1513 70.1339 45.2427C70.0043 45.3346 69.8461 45.4067 69.6572 45.4574C69.4683 45.509 69.255 45.5346 69.0173 45.5346C68.7766 45.5346 68.5397 45.509 68.3082 45.4578L68.1914 44.4661C68.3881 44.506 68.5662 44.5252 68.724 44.5252C69.0168 44.5252 69.2326 44.4376 69.373 44.2632C69.5135 44.0879 69.6207 43.8652 69.6953 43.5952L67.894 38.7988Z" fill="#4A4A4A"/>
<path fill-rule="evenodd" clip-rule="evenodd" d="M73.7396 38.7985H74.8915V39.4518C75.3053 38.9377 75.7977 38.6807 76.3693 38.6807C76.6725 38.6807 76.9359 38.7436 77.1592 38.8698C77.3824 38.9964 77.5655 39.1876 77.708 39.443C77.9159 39.1876 78.1408 38.9964 78.381 38.8698C78.6221 38.7436 78.8785 38.6807 79.1518 38.6807C79.4997 38.6807 79.7938 38.752 80.0345 38.8954C80.2751 39.0375 80.4553 39.2476 80.5741 39.5248C80.6599 39.729 80.703 40.0598 80.703 40.5173V43.5814H79.4476V40.8419C79.4476 40.3664 79.4045 40.0598 79.3187 39.9215C79.2028 39.7403 79.0251 39.6502 78.7853 39.6502C78.6101 39.6502 78.4452 39.7043 78.2911 39.8129C78.1371 39.9215 78.0261 40.08 77.9581 40.2892C77.8898 40.4981 77.8554 40.8285 77.8554 41.2797V43.5814H76.6V40.9551C76.6 40.488 76.5781 40.1877 76.5333 40.0519C76.489 39.9164 76.4202 39.8158 76.3266 39.7495C76.233 39.6837 76.1067 39.6502 75.9464 39.6502C75.7538 39.6502 75.5803 39.703 75.4262 39.8082C75.2721 39.9135 75.1619 40.0657 75.0948 40.2641C75.0282 40.4628 74.995 40.792 74.995 41.2524V43.5814H73.7396V38.7985Z" fill="#4A4A4A"/>
<path fill-rule="evenodd" clip-rule="evenodd" d="M85.0268 40.7906C85.0177 40.4182 84.9241 40.1356 84.7443 39.9414C84.5658 39.7477 84.3475 39.6504 84.0907 39.6504C83.8166 39.6504 83.5892 39.7531 83.4107 39.9573C83.2313 40.1616 83.1435 40.4396 83.1464 40.7906H85.0268ZM84.9625 42.0747L86.2051 42.2844C86.0439 42.7453 85.7905 43.0967 85.4438 43.3378C85.0967 43.5793 84.663 43.6997 84.142 43.6997C83.3178 43.6997 82.7077 43.4267 82.3117 42.8811C81.999 42.4442 81.8428 41.8928 81.8428 41.226C81.8428 40.431 82.0487 39.8074 82.4587 39.3566C82.8696 38.9058 83.3882 38.6807 84.0161 38.6807C84.7214 38.6807 85.2773 38.9172 85.6848 39.3898C86.0924 39.8632 86.2875 40.5874 86.2697 41.5636H83.1243C83.1334 41.9401 83.2353 42.2328 83.43 42.4425C83.6243 42.6513 83.867 42.7562 84.1581 42.7562C84.3557 42.7562 84.5218 42.7025 84.6564 42.5947C84.7919 42.4874 84.8937 42.3138 84.9625 42.0747Z" fill="#4A4A4A"/>
<path fill-rule="evenodd" clip-rule="evenodd" d="M91.8565 43.5814H90.6011V41.135C90.6011 40.6176 90.5742 40.2829 90.5216 40.1311C90.4681 39.9793 90.3816 39.8607 90.2619 39.7764C90.1422 39.6925 89.998 39.6502 89.8299 39.6502C89.6145 39.6502 89.4207 39.7105 89.2496 39.8309C89.0781 39.9512 88.9609 40.1106 88.8971 40.3094C88.8337 40.5077 88.8019 40.8746 88.8019 41.4105V43.5814H87.5464V38.7985H88.7111V39.5013C89.1237 38.9541 89.6427 38.6807 90.2681 38.6807C90.5439 38.6807 90.7966 38.7314 91.0244 38.832C91.2526 38.9327 91.4257 39.0614 91.543 39.2178C91.6602 39.3742 91.7413 39.5516 91.7873 39.7504C91.8337 39.9487 91.8565 40.233 91.8565 40.6029V43.5814Z" fill="#4A4A4A"/>
<path fill-rule="evenodd" clip-rule="evenodd" d="M95.5609 38.7981V39.807H94.7064V41.7422C94.7064 42.1338 94.7143 42.3624 94.7304 42.427C94.7461 42.492 94.7826 42.5452 94.8393 42.5876C94.8965 42.6295 94.9652 42.6509 95.0468 42.6509C95.1612 42.6509 95.3252 42.6102 95.5414 42.5293L95.6511 43.5097C95.3616 43.6359 95.034 43.6992 94.6683 43.6992C94.4434 43.6992 94.2417 43.6606 94.0615 43.5839C93.8817 43.5076 93.7496 43.4078 93.6651 43.2858C93.581 43.1642 93.523 42.9994 93.4907 42.7918C93.4638 42.6442 93.451 42.346 93.451 41.8978V39.807H92.8815V38.7981H93.451V37.8416L94.7064 37.0947V38.7981H95.5609Z" fill="#4A4A4A"/>
<path fill-rule="evenodd" clip-rule="evenodd" d="M96.2676 42.232L97.523 42.0353C97.5764 42.2798 97.6845 42.4651 97.8473 42.5922C98.0105 42.7193 98.2383 42.7822 98.5315 42.7822C98.855 42.7822 99.0981 42.7218 99.2609 42.601C99.3707 42.5159 99.4258 42.4031 99.4258 42.2605C99.4258 42.1641 99.3955 42.0835 99.3359 42.0206C99.2729 41.9598 99.1329 41.9041 98.9151 41.8525C97.9007 41.6256 97.2575 41.4189 96.9866 41.2323C96.6105 40.9736 96.4229 40.6134 96.4229 40.1534C96.4229 39.7374 96.5848 39.3881 96.91 39.1054C97.2355 38.8224 97.7396 38.6807 98.4226 38.6807C99.0729 38.6807 99.5558 38.7868 99.8723 38.9985C100.188 39.2107 100.406 39.5239 100.526 39.9387L99.3479 40.1613C99.297 39.9756 99.2 39.8326 99.0576 39.7336C98.9147 39.6342 98.7113 39.5847 98.4475 39.5847C98.1144 39.5847 97.8755 39.6313 97.7317 39.7256C97.6352 39.7919 97.5876 39.8779 97.5876 39.9835C97.5876 40.0745 97.629 40.1517 97.7127 40.2154C97.8258 40.2997 98.2172 40.4192 98.8861 40.5735C99.555 40.7278 100.022 40.9165 100.288 41.1401C100.549 41.3665 100.681 41.6822 100.681 42.0869C100.681 42.5276 100.5 42.9067 100.138 43.2237C99.7758 43.5411 99.2406 43.6997 98.5315 43.6997C97.8883 43.6997 97.3788 43.5676 97.0036 43.3046C96.6283 43.0409 96.3831 42.684 96.2676 42.232Z" fill="#4A4A4A"/>
<path fill-rule="evenodd" clip-rule="evenodd" d="M108.322 40.974L107.41 38.5234L106.528 40.974H108.322ZM110.743 43.582H109.322L108.758 42.0884H106.128L105.591 43.582H104.194L106.721 36.9775H108.109L110.743 43.582Z" fill="#4A4A4A"/>
<path fill-rule="evenodd" clip-rule="evenodd" d="M112.898 43.5814H111.643V38.7985H112.807V39.4787C113.006 39.1574 113.185 38.9444 113.344 38.8388C113.503 38.7335 113.683 38.6807 113.886 38.6807C114.171 38.6807 114.445 38.7608 114.71 38.9205L114.328 40.028C114.117 39.89 113.92 39.8208 113.738 39.8208C113.562 39.8208 113.413 39.8699 113.291 39.9672C113.169 40.0653 113.073 40.2418 113.003 40.4972C112.933 40.7526 112.898 41.2881 112.898 42.1024V43.5814Z" fill="#4A4A4A"/>
<path fill-rule="evenodd" clip-rule="evenodd" d="M118.334 40.7906C118.325 40.4182 118.231 40.1356 118.052 39.9414C117.873 39.7477 117.655 39.6504 117.399 39.6504C117.124 39.6504 116.897 39.7531 116.718 39.9573C116.539 40.1616 116.451 40.4396 116.454 40.7906H118.334ZM118.27 42.0747L119.513 42.2844C119.352 42.7453 119.098 43.0967 118.751 43.3378C118.405 43.5793 117.971 43.6997 117.45 43.6997C116.625 43.6997 116.015 43.4267 115.619 42.8811C115.307 42.4442 115.15 41.8928 115.15 41.226C115.15 40.431 115.356 39.8074 115.767 39.3566C116.177 38.9058 116.696 38.6807 117.324 38.6807C118.029 38.6807 118.585 38.9172 118.993 39.3898C119.4 39.8632 119.595 40.5874 119.577 41.5636H116.432C116.441 41.9401 116.543 42.2328 116.737 42.4425C116.932 42.6513 117.175 42.7562 117.465 42.7562C117.663 42.7562 117.829 42.7025 117.964 42.5947C118.099 42.4874 118.201 42.3138 118.27 42.0747Z" fill="#4A4A4A"/>
<path fill-rule="evenodd" clip-rule="evenodd" d="M123.47 41.2881C123.31 41.3426 123.057 41.4072 122.71 41.4827C122.364 41.5577 122.138 41.6319 122.031 41.7041C121.868 41.8219 121.787 41.9712 121.787 42.1519C121.787 42.3301 121.852 42.4836 121.983 42.6136C122.113 42.7432 122.278 42.8082 122.48 42.8082C122.705 42.8082 122.919 42.7327 123.124 42.5822C123.274 42.4673 123.374 42.3272 123.421 42.1611C123.453 42.0525 123.47 41.8458 123.47 41.5409V41.2881ZM121.787 40.2532L120.661 40.0435C120.789 39.5801 121.008 39.2375 121.32 39.0149C121.631 38.7922 122.095 38.6807 122.709 38.6807C123.267 38.6807 123.683 38.7478 123.955 38.8811C124.228 39.0157 124.421 39.1855 124.532 39.3914C124.643 39.5973 124.699 39.976 124.699 40.5266L124.687 42.0068C124.687 42.4278 124.706 42.739 124.746 42.9386C124.786 43.1386 124.861 43.3529 124.971 43.5814H123.729C123.695 43.4988 123.656 43.3759 123.608 43.2132C123.588 43.139 123.572 43.0904 123.564 43.0665C123.35 43.2774 123.123 43.4359 122.879 43.5416C122.636 43.6468 122.377 43.6997 122.101 43.6997C121.615 43.6997 121.231 43.5655 120.951 43.2979C120.672 43.03 120.532 42.6912 120.532 42.2819C120.532 42.0114 120.595 41.7699 120.723 41.5577C120.85 41.3455 121.029 41.1828 121.259 41.07C121.489 40.9576 121.821 40.8583 122.254 40.774C122.839 40.6628 123.244 40.5593 123.47 40.4628V40.3349C123.47 40.0884 123.41 39.9127 123.291 39.8074C123.171 39.7026 122.946 39.6502 122.615 39.6502C122.391 39.6502 122.217 39.695 122.091 39.7839C121.966 39.8732 121.864 40.0297 121.787 40.2532Z" fill="#4A4A4A"/>
<path fill-rule="evenodd" clip-rule="evenodd" d="M27.7564 11.0257H19.2084C19.2084 9.60545 19.0435 8.6523 18.7155 8.16713C18.2069 7.44924 16.8028 7.08987 14.5049 7.08987C12.2732 7.08987 10.7937 7.2966 10.0718 7.71048C9.3503 8.12562 8.98912 9.02844 8.98912 10.4185C8.98912 11.677 9.30888 12.5056 9.95004 12.9027C10.4094 13.1845 11.0162 13.3501 11.7729 13.3996L13.4967 13.5229C17.1913 13.7711 19.4987 13.946 20.4191 14.0453C23.3407 14.3435 25.4589 15.1302 26.7731 16.4049C27.8073 17.3996 28.4241 18.6995 28.6208 20.3047C28.736 21.265 28.7931 22.3515 28.7931 23.5587C28.7931 26.3414 28.5309 28.3794 28.0057 29.6709C27.0539 32.0406 24.9159 33.5372 21.5891 34.1658C20.1954 34.4316 18.0632 34.5646 15.1953 34.5646C10.4081 34.5646 7.07185 34.2761 5.18812 33.6961C2.87612 32.9858 1.35191 31.5466 0.614241 29.3795C0.203366 28.1731 0 26.1641 0 23.3516H8.54801C8.54801 23.6653 8.54884 23.9051 8.54884 24.0703C8.54884 25.5711 8.97504 26.5364 9.82537 26.9662C10.4148 27.2627 11.1263 27.4183 11.963 27.4367H15.1054C16.7092 27.4367 17.7326 27.3537 18.1742 27.1868C18.9599 26.874 19.4755 26.3704 19.722 25.6734C19.8529 25.2445 19.9179 24.6893 19.9179 24.01C19.9179 22.4882 19.3691 21.5623 18.2736 21.2302C17.8639 21.0989 15.9578 20.9161 12.5557 20.6842C9.82371 20.4867 7.9259 20.2968 6.8631 20.1127C4.06443 19.5826 2.19934 18.4928 1.26866 16.8381C0.450637 15.4321 0.0414188 13.3048 0.0414188 10.4592C0.0414188 8.2921 0.262595 6.55438 0.704534 5.24732C1.14689 3.93984 1.8597 2.94728 2.8434 2.26838C4.28436 1.22634 6.12833 0.61453 8.37281 0.431701C10.2404 0.266903 12.3122 0.182617 14.591 0.182617C18.1787 0.182617 20.7355 0.391445 22.2597 0.805327C25.9795 1.81718 27.8392 4.65145 27.8392 9.30898C27.8392 9.69099 27.8115 10.2621 27.7564 11.0257Z" fill="#4A4A4A"/>
<path fill-rule="evenodd" clip-rule="evenodd" d="M74.5347 17.622H80.2629C82.0791 17.5558 83.1838 17.4144 83.5814 17.193C84.1244 16.8907 84.4889 16.2856 84.6703 15.3777C84.7863 14.7735 84.8443 13.8753 84.8443 12.6819C84.8443 11.2201 84.7291 10.1365 84.4976 9.42867C84.1671 8.43737 83.3756 7.83353 82.1218 7.61422C81.8741 7.58109 81.2806 7.56348 80.3404 7.56348H74.5347V17.622ZM65.3459 34.5648V0H82.4648C84.8128 0 86.6046 0.194151 87.8355 0.582034C90.6512 1.47521 92.5403 3.30392 93.5078 6.06775C94.0074 7.51822 94.2571 9.70211 94.2571 12.6181C94.2571 16.1242 93.98 18.644 93.432 20.1779C92.334 23.2113 90.0738 24.9587 86.6609 25.4116C86.2596 25.4795 84.5519 25.5403 81.5378 25.589L80.0124 25.6405H74.5343V34.5648H65.3459Z" fill="#4A4A4A"/>
<path fill-rule="evenodd" clip-rule="evenodd" d="M112.046 21.8572L107.741 6.87402L103.563 21.8572H112.046ZM113.87 28.591H101.585L99.9347 34.5648H90.4282L100.686 0H114.546L124.93 34.5648H115.623L113.87 28.591Z" fill="#4A4A4A"/>
<path fill-rule="evenodd" clip-rule="evenodd" d="M52.6645 4.86283C56.4543 4.86283 59.8365 6.63032 62.0599 9.39875L64.0406 5.09933C60.9428 2.13507 56.7268 0.307617 52.0767 0.307617C44.8367 0.307617 38.6434 4.73451 36.1015 11.001H32.2392L29.9587 15.9508H34.9273C34.89 16.41 34.866 16.8696 34.866 17.3384C34.866 17.9058 34.895 18.4664 34.9505 19.0203H32.4533L30.1732 23.9718H36.22C38.8343 30.0798 44.9502 34.3679 52.0767 34.3679C55.6682 34.3679 59.0007 33.2785 61.76 31.4175V25.3493C59.5379 27.9106 56.2878 29.5292 52.6645 29.5292C48.429 29.5292 44.7034 27.3181 42.5338 23.9718H55.196L57.4761 19.0203H40.6708C40.5843 18.4245 40.5379 17.8156 40.5379 17.1954C40.5379 16.7761 40.5594 16.3609 40.5992 15.9508H58.8893L61.1694 11.001H42.181C44.2809 7.33186 48.1888 4.86283 52.6645 4.86283Z" fill="white" fill-opacity="0.57"/>
</svg>
