<svg width="120" height="120" viewBox="0 0 120 120" fill="none" xmlns="http://www.w3.org/2000/svg">
<g filter="url(#filter0_d_0_35)">
<path fill-rule="evenodd" clip-rule="evenodd" d="M41.7693 27.297C37.9901 29.7979 35.2009 32.4054 32.6358 35.8354C31.2147 37.7355 29.7763 40.2401 28.7692 42.5678C28.0266 44.2843 26.8678 48.0455 26.5404 49.8022C25.5463 55.1345 25.8061 60.4641 27.315 65.6966C28.0438 68.2241 28.4618 69.2192 30.0358 72.1739C31.3206 74.586 31.5988 75.0549 32.3376 76.0557C33.8007 78.037 35.0733 79.4875 36.7087 81.0377C39.5986 83.7771 42.9324 85.9432 46.8865 87.6506C48.2855 88.2547 52.0537 89.401 53.5475 89.6769C60.1762 90.9013 65.9737 90.4034 72.3998 88.0575C73.743 87.5671 78.5358 85.0518 79.4668 84.3486C79.7761 84.115 80.1837 83.8143 80.3725 83.6803C82.4793 82.1862 85.132 79.6251 86.9625 77.318C91.8811 71.119 94.5683 62.9452 94.2891 55.0324C94.1533 51.1863 93.4671 47.7553 92.0639 43.9067C91.4784 42.301 89.1258 37.8845 88.12 36.503C85.3429 32.6887 82.1781 29.6438 78.6735 27.4144C76.0079 25.7187 73.2379 24.4537 70.0884 23.4935C65.6666 22.1455 61.6486 21.7104 57.1715 22.0945C54.16 22.3529 51.3965 22.9696 48.2589 24.0834C47.2623 24.4371 46.5393 24.7733 44.5506 25.8071C43.1919 26.5134 41.9403 27.1838 41.7693 27.297ZM49.405 27.5181C52.817 26.2887 55.6337 25.7457 59.1789 25.634C68.1645 25.3507 76.58 28.8983 82.7023 35.5505C83.4116 36.321 84.2875 37.4092 85.2499 38.7152C85.9285 39.6359 88.2205 43.9396 88.6086 45.0215C90.0572 49.0603 90.5988 51.8667 90.6695 55.6988C90.8399 64.9346 86.6233 73.9778 79.4215 79.8222C77.5635 81.3299 77.0383 81.6717 74.5026 83.0236C72.0847 84.3124 71.3987 84.6123 69.3853 85.2604C62.9212 87.3409 55.7542 87.1446 49.3297 84.7109C43.6089 82.5439 38.9625 78.9727 35.2308 73.8749C34.4372 72.7907 32.6819 69.6529 32.0625 68.211C28.9169 60.8882 28.7527 52.66 31.6036 45.2241C33.8108 39.4671 37.756 34.4339 42.7155 31.0473C43.1395 30.7577 43.5893 30.4473 43.715 30.3576C44.2781 29.9557 48.5328 27.8324 49.405 27.5181ZM44.9895 32.1581C36.1493 37.7184 31.0494 47.8657 31.8462 58.3095C32.3744 65.2345 35.4703 71.7937 40.4788 76.599C47.0069 82.8623 56.2103 85.6485 65.1171 84.0578C71.1347 82.983 76.6812 79.9765 80.8229 75.5442C87.0128 68.9201 89.6783 59.7242 87.9919 50.8112C87.2001 46.6268 85.3404 42.4396 82.764 39.0406C78.275 33.1185 71.7633 29.2518 64.3529 28.1084C57.6536 27.0747 50.7888 28.5104 44.9895 32.1581ZM50.7827 30.2031C55.3819 28.5925 60.0001 28.1846 64.7412 28.97C66.8596 29.3209 69.8463 30.2612 71.8561 31.21C77.6105 33.9261 82.0268 38.2676 84.8444 43.9777C87.4945 49.3487 88.2922 54.9962 87.2543 61.04C87.0363 62.3096 86.137 65.3752 85.6134 66.6337C82.5525 73.9893 76.6173 79.594 69.1242 82.2042C58.4331 85.9283 46.122 82.496 38.9433 73.7898C37.5328 72.079 37.0993 71.418 35.8521 69.0757C34.6319 66.7841 34.2122 65.7998 33.6968 64.0208C31.5964 56.7703 32.4726 49.106 36.1485 42.5734C38.2684 38.8061 41.2556 35.5992 44.9681 33.1049C46.1165 32.3334 49.4501 30.6697 50.7827 30.2031ZM44.3268 39.0072C43.8142 39.4635 43.5388 40.1392 43.6 40.7905C43.6292 41.1012 43.8698 41.6036 45.0542 43.827L46.4734 46.4913L42.9105 48.3892L39.3475 50.2871L40.2637 52.0069L41.1798 53.7268L42.7393 52.8961C44.1214 52.1599 44.3439 52.0646 44.6951 52.0583C45.2091 52.0492 45.8438 52.2922 46.1639 52.6208C46.3425 52.8041 47.6933 55.2933 50.7122 61.0024L55.0065 69.1234L55.0056 69.5543C55.0047 70.056 54.7684 70.7393 54.4694 71.1047C54.3232 71.2836 53.888 71.559 53.0286 72.0168L51.7974 72.6726L52.6797 74.3316C53.165 75.2441 53.5839 76.0854 53.6108 76.2012L53.6595 76.4118L57.0682 74.5961L60.4769 72.7804L61.8842 75.4213C62.7316 77.0115 63.3913 78.1671 63.5422 78.3258C63.6801 78.4708 63.9765 78.6588 64.201 78.7434C65.6032 79.2724 67.0555 78.1724 66.9158 76.687C66.8866 76.376 66.6438 75.8698 65.4387 73.6074L63.9966 70.9001L65.2369 70.2684L66.4772 69.6367L67.9594 72.3692C69.3991 75.0232 69.4521 75.1087 69.808 75.3472C71.0572 76.1844 72.7465 75.4072 72.9217 73.9147L72.9766 73.4474L71.5087 70.593L70.0407 67.7385L71.038 67.1433C74.0904 65.3214 75.9731 63.3934 76.9613 61.0775C77.4325 59.9732 77.6355 58.8604 77.5924 57.6181C77.5492 56.3755 77.309 55.4136 76.7464 54.2313C75.6914 52.0141 74.1594 50.6483 72.1168 50.1041C70.8877 49.7766 69.9056 49.7525 68.3794 50.0124C68.1951 50.0438 68.1924 50.0344 68.3186 49.8006C69.7127 47.2189 69.4829 44.1256 67.7488 42.1302C65.9045 40.0082 62.853 39.4732 58.7975 40.5611C58.1924 40.7234 56.2718 41.3771 56.0448 41.498C56.0302 41.5058 55.3569 40.2708 54.5487 38.7536C53.1379 36.1051 53.0646 35.9843 52.7123 35.7272C51.9766 35.1901 50.8825 35.2803 50.2208 35.9323C49.7982 36.3487 49.5943 36.8272 49.5933 37.4044C49.5925 37.8228 49.6437 37.937 51.0166 40.5755L52.4408 43.3127L51.2181 43.964L49.9954 44.6153L48.5762 41.951C47.0312 39.0507 46.9494 38.9371 46.2333 38.6981C45.5829 38.4812 44.7695 38.613 44.3268 39.0072ZM56.5268 46.119C57.5581 45.7575 58.2866 45.6701 59.3239 45.7834C60.6339 45.9266 61.5079 46.4887 62.0743 47.552C62.6355 48.6055 62.774 49.7053 62.4609 50.6213C62.0799 51.7358 61.3473 52.4958 59.6069 53.5823C58.5715 54.2285 56.5126 55.2911 55.9999 55.4437L55.7958 55.5045L53.9235 51.9896L52.0513 48.4748L52.2998 48.3C52.9526 47.8409 55.7876 46.3782 56.5268 46.119ZM63.4386 56.3311C64.9022 55.7594 65.615 55.5696 66.406 55.541C67.4235 55.5043 68.2782 55.949 69.0717 56.9281C69.9728 58.0397 70.2096 59.2757 69.7871 60.6614C69.3617 62.056 68.5483 62.8372 65.8262 64.4652C64.8226 65.0654 63.622 65.717 62.9306 66.0367L61.7495 66.5829L59.7897 62.9553C58.2512 60.1072 57.8446 59.3016 57.8983 59.207C58.0234 58.9862 62.2258 56.8048 63.4386 56.3311Z" fill="url(#paint0_linear_0_35)"/>
</g>
<defs>
<filter id="filter0_d_0_35" x="0.94902" y="0.960693" width="118.36" height="118.364" filterUnits="userSpaceOnUse" color-interpolation-filters="sRGB">
<feFlood flood-opacity="0" result="BackgroundImageFix"/>
<feColorMatrix in="SourceAlpha" type="matrix" values="0 0 0 0 0 0 0 0 0 0 0 0 0 0 0 0 0 0 127 0" result="hardAlpha"/>
<feOffset dy="4"/>
<feGaussianBlur stdDeviation="12.5"/>
<feComposite in2="hardAlpha" operator="out"/>
<feColorMatrix type="matrix" values="0 0 0 0 0.846131 0 0 0 0 0.4125 0 0 0 0 1 0 0 0 0.54 0"/>
<feBlend mode="normal" in2="BackgroundImageFix" result="effect1_dropShadow_0_35"/>
<feBlend mode="normal" in="SourceGraphic" in2="effect1_dropShadow_0_35" result="shape"/>
</filter>
<linearGradient id="paint0_linear_0_35" x1="-5.5" y1="10" x2="88" y2="85" gradientUnits="userSpaceOnUse">
<stop stop-color="#BC0DD9"/>
<stop offset="1" stop-color="#E9ABFF"/>
</linearGradient>
</defs>
</svg>
