<svg width="81" height="74" viewBox="0 0 81 74" fill="none" xmlns="http://www.w3.org/2000/svg">
<g filter="url(#filter0_d_0_44)">
<path fill-rule="evenodd" clip-rule="evenodd" d="M25.7423 28.9152C25.6212 29.1689 25.5854 29.3442 25.5979 29.6214C25.6358 30.4661 26.3952 31.0968 27.1826 30.9376C27.5423 30.8649 27.623 30.8072 28.3784 30.082C29.2469 29.2484 29.9438 28.6832 30.8482 28.079C33.5813 26.2534 36.845 25.0765 39.6622 24.9007C41.4921 24.7865 43.3205 25.0591 45.4228 25.7595C47.0333 26.2961 48.485 26.9858 49.9409 27.9061C51.056 28.611 51.861 29.2444 52.8075 30.1615C53.4656 30.7991 53.5434 30.8533 53.9189 30.9357C54.164 30.9895 54.3503 30.9754 54.6201 30.8828C54.8276 30.8116 54.8512 30.7954 55.0766 30.57C55.2724 30.3742 55.3279 30.3013 55.3917 30.1565C55.5808 29.727 55.5609 29.2436 55.3374 28.84C55.2575 28.6958 55.1857 28.6179 54.8089 28.2666C54.3417 27.8312 53.457 27.0694 52.9281 26.6473C49.114 23.6033 45.3846 22.1059 41.2337 21.9519C38.0252 21.8329 35.2353 22.4295 32.4541 23.8292C30.5525 24.7861 28.8136 26.0166 26.7 27.9006C26.0453 28.4842 25.8484 28.6928 25.7423 28.9152ZM29.9539 32.9695C29.7482 33.2875 29.6894 33.7633 29.8101 34.1331C30.0491 34.8657 30.7761 35.2828 31.5375 35.1241C31.8684 35.0552 32.0446 34.9465 32.5344 34.5091C35.2394 32.094 37.4014 30.9745 39.763 30.7659C42.4946 30.5245 45.1911 31.6092 48.1381 34.1345C49.158 35.0086 49.1126 34.9745 49.3818 35.0688C49.6702 35.1698 50.0684 35.1837 50.3198 35.1014C50.6143 35.0049 50.7925 34.8887 51.0012 34.657C51.1631 34.4772 51.2025 34.4131 51.2734 34.2136C51.4359 33.7563 51.3781 33.2679 51.1177 32.8976C50.8648 32.538 49.2711 31.1823 48.1933 30.4099C46.2855 29.0426 44.3266 28.2104 42.3465 27.9258C41.3082 27.7766 39.7543 27.7665 38.7763 27.9025C35.9955 28.2895 33.6006 29.5695 30.6516 32.2452C30.0839 32.7603 30.1001 32.7434 29.9539 32.9695ZM34.132 37.0456C33.9597 37.303 33.8846 37.5698 33.893 37.8943C33.9181 38.8611 34.9082 39.5481 35.8311 39.2392C36.1176 39.1432 36.2281 39.0648 36.768 38.5741C37.2607 38.1261 37.6208 37.8361 38.0095 37.574C38.2379 37.4199 38.6499 37.182 38.7824 37.1276C39.3505 36.8944 39.6323 36.8363 40.2386 36.8274C41.1904 36.8136 41.9073 36.9703 42.6715 37.3593C43.3214 37.6901 43.8208 38.0444 44.4779 38.6408C45.0033 39.1176 45.2863 39.2761 45.6755 39.3114C46.4959 39.3857 47.162 38.7366 47.1338 37.8902C47.1265 37.6712 47.0668 37.4605 46.9424 37.2149C46.7693 36.873 45.187 35.4898 44.3171 34.9198C42.8963 33.9888 41.487 33.5999 39.962 33.7182C38.5734 33.8259 37.4201 34.3158 36.0219 35.3919C35.4291 35.8482 34.2329 36.8948 34.132 37.0456ZM38.7572 40.7304C38.1446 41.6162 38.2463 42.8031 38.9994 43.555C39.6942 44.2486 40.7466 44.3964 41.6386 43.9256C41.8946 43.7905 42.3575 43.3212 42.4878 43.0645C42.6956 42.6554 42.7627 42.3476 42.7449 41.8852C42.7137 41.0725 42.2054 40.3335 41.4386 39.986C40.8492 39.7188 40.0209 39.7656 39.4531 40.0979C39.2583 40.212 38.8746 40.5607 38.7572 40.7304Z" fill="#4FFF75"/>
</g>
<defs>
<filter id="filter0_d_0_44" x="0.59552" y="0.937256" width="79.925" height="72.2612" filterUnits="userSpaceOnUse" color-interpolation-filters="sRGB">
<feFlood flood-opacity="0" result="BackgroundImageFix"/>
<feColorMatrix in="SourceAlpha" type="matrix" values="0 0 0 0 0 0 0 0 0 0 0 0 0 0 0 0 0 0 127 0" result="hardAlpha"/>
<feOffset dy="4"/>
<feGaussianBlur stdDeviation="12.5"/>
<feComposite in2="hardAlpha" operator="out"/>
<feColorMatrix type="matrix" values="0 0 0 0 0.309804 0 0 0 0 1 0 0 0 0 0.458824 0 0 0 1 0"/>
<feBlend mode="normal" in2="BackgroundImageFix" result="effect1_dropShadow_0_44"/>
<feBlend mode="normal" in="SourceGraphic" in2="effect1_dropShadow_0_44" result="shape"/>
</filter>
</defs>
</svg>
