<svg width="53" height="36" viewBox="0 0 53 36" fill="none" xmlns="http://www.w3.org/2000/svg">
<path fill-rule="evenodd" clip-rule="evenodd" d="M43.2489 0.0453611C40.4625 0.282478 37.9156 1.64443 36.5037 3.65237C34.9435 5.87146 34.9318 8.60944 36.4732 10.8343C36.9815 11.568 37.9177 12.4693 38.615 12.8964C38.7489 12.9784 39.1384 13.2681 39.4805 13.5401C39.8227 13.8122 40.1713 14.086 40.2551 14.1486L40.4075 14.2625L40.2948 14.6479C40.2328 14.8599 40.0714 15.3224 39.936 15.6757C39.6549 16.4092 39.653 16.5787 39.9232 16.821C40.2101 17.0781 40.4249 17.0378 41.4484 16.5353C42.5686 15.9852 43.3401 15.4927 43.889 14.9775L44.3224 14.5707L44.9688 14.5221C48.9249 14.2245 52.1802 11.7561 52.8695 8.53094C53.3225 6.41132 52.582 4.20365 50.8668 2.56071C49.3504 1.10826 47.3252 0.241565 44.9824 0.0425055C44.3061 -0.0149175 43.9505 -0.0143464 43.2489 0.0453611ZM24.2246 0.959508C20.4605 1.1566 17.1199 3.30845 15.5395 6.55415C14.8374 7.99601 14.5531 9.37406 14.6124 11.0475C14.6785 12.9111 15.1862 14.4419 16.2649 16.0298C16.8498 16.8907 17.7696 17.8366 18.5709 18.4012C18.7645 18.5376 18.9227 18.6623 18.9223 18.6782C18.922 18.6941 18.6847 18.7887 18.3949 18.8884C16.6155 19.5003 14.6241 20.7326 13.1897 22.1091C10.7989 24.4037 9.39323 27.2721 8.75069 31.1679C8.71769 31.3677 8.67187 31.9986 8.64877 32.5697C8.61209 33.4784 8.61874 33.6535 8.70227 33.9715C8.7548 34.1714 8.79971 34.3156 8.80209 34.292C8.80447 34.2683 8.88632 34.3501 8.98402 34.4737C9.75958 35.4548 11.285 35.3387 11.8882 34.2526C12.0434 33.9732 12.0709 33.8678 12.0857 33.4976C12.129 32.4091 12.9467 29.3778 13.6025 27.8748C14.1821 26.5462 15.3002 25.0082 16.4959 23.8948C17.4389 23.0167 18.3453 22.3954 19.5037 21.833C21.0908 21.0625 22.5006 20.6775 24.5763 20.4478C26.339 20.2528 26.9897 20.1375 27.8493 19.8683C30.3741 19.0775 32.4535 17.4144 33.6828 15.2026C34.975 12.8777 35.2146 10.1309 34.3441 7.62234C33.8322 6.14695 33.0337 4.90815 31.8826 3.80345C30.1094 2.10169 27.9251 1.15364 25.37 0.976798C24.9632 0.948657 24.606 0.929759 24.5763 0.934795C24.5465 0.939831 24.3883 0.950942 24.2246 0.959508ZM11.5114 2.45978C10.2288 2.77425 9.13609 3.24236 8.21398 3.8723C7.57988 4.30552 6.72566 5.11042 6.24537 5.72728C5.50529 6.67772 4.89279 8.07171 4.65983 9.33569C4.53427 10.0172 4.53698 11.3671 4.6653 12.0615C5.00012 13.8728 5.89778 15.4998 7.24479 16.7372C7.68364 17.1403 8.37627 17.6684 8.63211 17.7948C8.69989 17.8283 8.74317 17.8746 8.72824 17.8978C8.71336 17.9209 8.51179 18.0035 8.28041 18.0813C7.59925 18.3103 6.46831 18.8705 5.70416 19.3574C2.30994 21.5203 0.251308 24.9585 0.0102425 28.867C-0.0306563 29.5302 0.0556316 30.6195 0.185415 31.079C0.391965 31.81 1.41985 32.1899 2.31859 31.8673C2.97184 31.6328 3.27853 31.1475 3.21344 30.4513C3.12975 29.5557 3.11726 28.8215 3.17774 28.3503C3.51029 25.7592 4.8323 23.4611 6.91668 21.8508C8.4169 20.6918 10.1619 19.9753 12.0427 19.7461C13.2474 19.5993 13.7426 19.3888 14.0667 18.8857C14.5227 18.1779 14.3018 17.2521 13.5766 16.8315C13.4032 16.7309 13.0961 16.6251 12.7692 16.5534C11.4359 16.2607 10.4054 15.7075 9.50094 14.799C7.18139 12.4689 7.20909 8.81976 9.5638 6.53079C10.4119 5.70641 11.6014 5.06769 12.4678 4.97154C13.0609 4.90565 13.4551 4.65909 13.7084 4.19565C13.853 3.93112 13.8446 3.35425 13.6922 3.07938C13.312 2.39373 12.6027 2.19218 11.5114 2.45978ZM47.5792 4.2455C48.0403 4.51527 48.0028 5.03306 47.5043 5.27947C47.4209 5.3207 46.4999 5.33788 44.3774 5.33788C41.1359 5.33788 41.1713 5.34069 40.9716 5.06702C40.8746 4.93421 40.8601 4.60073 40.9447 4.44907C40.9763 4.39227 41.0798 4.30048 41.1746 4.24498C41.3399 4.1483 41.4719 4.1441 44.3765 4.1441C47.286 4.1441 47.4129 4.14815 47.5792 4.2455ZM47.5148 6.3472C47.7076 6.42451 47.9194 6.69361 47.9198 6.86167C47.9201 7.0357 47.7588 7.28777 47.581 7.39099C47.4145 7.48761 47.2732 7.49332 44.674 7.509C41.4331 7.52847 41.3116 7.52094 41.0656 7.28481C40.7678 6.99905 40.8405 6.56344 41.2182 6.3703C41.3878 6.2836 41.6162 6.27664 44.3647 6.27462C46.8254 6.2728 47.36 6.2851 47.5148 6.3472ZM46.1544 8.52465C46.66 8.72735 46.7024 9.33283 46.2285 9.58142C46.0717 9.66366 45.8406 9.67488 43.9978 9.68994C41.481 9.71044 41.307 9.69715 41.0656 9.46544C40.8642 9.27214 40.8285 9.02407 40.9655 8.76977C41.1321 8.46058 41.1755 8.45555 43.6885 8.45425C45.5122 8.45332 46.0121 8.46759 46.1544 8.52465ZM33.6058 21.9704C33.2438 22.0585 32.9926 22.2124 32.6985 22.5264C32.4055 22.839 32.2846 23.1581 32.2878 23.6098C32.292 24.2271 32.5189 24.6103 33.1419 25.0524C34.3627 25.9189 35.7497 27.637 36.4381 29.1357C37.1588 30.7046 37.5232 32.6125 37.3692 34.0111C37.3298 34.3683 37.3255 34.5943 37.3575 34.6144C37.3858 34.632 37.4506 34.7684 37.5018 34.9175C37.624 35.2739 37.9947 35.666 38.3808 35.8473C38.8067 36.0472 39.3766 36.0512 39.8131 35.8572C40.2009 35.6849 40.5355 35.3646 40.7101 34.9987C40.8299 34.7474 40.8486 34.6295 40.8631 34.0305C40.955 30.2421 39.6576 26.8514 37.0361 24.0289C36.287 23.2225 35.1058 22.226 34.6893 22.0491C34.3897 21.9219 33.9395 21.8892 33.6058 21.9704Z" fill="#BB00A8"/>
</svg>
