<svg width="41" height="40" viewBox="0 0 41 40" fill="none" xmlns="http://www.w3.org/2000/svg">
<path fill-rule="evenodd" clip-rule="evenodd" d="M1.22298 0.0856617C0.788905 0.221944 0.354719 0.646374 0.157896 1.12726C0.027871 1.44489 0 3.51274 0 12.8437V24.1745H20.5H41V12.7454V1.3164L40.7409 0.920137C40.5983 0.702229 40.3355 0.411086 40.1566 0.273125L39.8315 0.0223748L20.6931 0.0019986C10.1321 -0.00926839 1.40609 0.028248 1.22298 0.0856617ZM27.6404 3.23323C28.0063 3.42476 28.0961 4.07202 27.8034 4.40859C27.634 4.60336 27.4418 4.6368 26.4997 4.63525C25.3203 4.63321 25.2144 4.60204 25.0088 4.19547C24.8196 3.82127 24.8409 3.70416 25.1591 3.3731C25.4141 3.10761 25.5352 3.07896 26.3972 3.08064C26.9318 3.0816 27.4793 3.14872 27.6404 3.23323ZM32.5139 3.21668C32.8387 3.39456 32.9343 3.5511 32.9365 3.90841C32.94 4.50388 32.6634 4.63704 31.4232 4.63704C30.4428 4.63704 30.2581 4.60456 30.059 4.39732C29.7376 4.06279 29.7674 3.62577 30.1321 3.32732C30.3811 3.12343 30.5992 3.07884 31.349 3.07884C31.8514 3.07884 32.3755 3.14081 32.5139 3.21668ZM37.587 3.32732C37.9517 3.62577 37.9815 4.06279 37.6601 4.39732C37.4616 4.60396 37.2763 4.63704 36.316 4.63704C35.0813 4.63704 34.7794 4.49776 34.7826 3.92926C34.7863 3.28057 35.1441 3.08723 36.3489 3.08244C37.1234 3.07944 37.3356 3.12139 37.587 3.32732ZM29.6714 7.35562C29.9163 7.48723 30.2721 7.82392 30.4621 8.1038L30.8076 8.61249L30.8418 11.8088L30.8761 15.0051L31.2251 15.38C31.6563 15.8431 31.8039 16.4486 31.6193 16.9973C31.3809 17.7061 29.748 20.5092 29.4283 20.7584C29.0397 21.0613 28.155 21.0811 27.7374 20.7963C27.5724 20.6837 26.9956 19.791 26.4333 18.7776C25.4571 17.0186 25.4268 16.9412 25.4814 16.3496C25.5268 15.8587 25.6077 15.6735 25.8928 15.4084L26.2478 15.0783L26.2819 11.8547L26.316 8.63131L26.6457 8.1364C27.3265 7.1147 28.6081 6.78388 29.6714 7.35562ZM35.9098 7.20184C36.3716 7.45031 36.5181 7.65636 37.5358 9.48868C38.2202 10.7207 38.4662 11.2756 38.4658 11.5863C38.4654 12.0407 38.1125 12.7525 37.8322 12.8645C37.686 12.9228 37.66 13.3773 37.6594 15.8869C37.6591 17.5781 37.6071 19.0342 37.538 19.2934C37.2885 20.2288 36.2569 21.0498 35.3243 21.0554C34.3427 21.0614 33.3899 20.3203 33.1078 19.3316C32.9793 18.8811 32.9382 18.049 32.9382 15.8949V13.0528L32.5964 12.6718C32.226 12.2593 32.0602 11.6551 32.195 11.2099C32.2982 10.8691 33.9336 7.90327 34.1925 7.5872C34.6032 7.08606 35.3734 6.91321 35.9098 7.20184ZM28.0591 8.84095L27.7556 9.0893V12.7964V16.5033H27.3525C27.1308 16.5033 26.9494 16.5357 26.9494 16.5751C26.9494 16.6406 28.0076 18.5694 28.4128 19.2424C28.5791 19.5186 28.5987 19.4953 29.376 18.1037C29.8125 17.3223 30.1707 16.6461 30.1719 16.6008C30.1731 16.5556 30.0058 16.5017 29.7999 16.4809L29.4256 16.4434L29.368 12.7028C29.3132 9.13952 29.2995 8.9535 29.0801 8.78114C28.7594 8.52919 28.4153 8.54932 28.0591 8.84095ZM34.4679 10.0628L33.6519 11.5291L34.0437 11.5662L34.4354 11.6035V15.2575V18.9115L34.7181 19.2056C35.0784 19.5807 35.5199 19.5807 35.8802 19.2056L36.1629 18.9115V15.2575V11.6035L36.5618 11.5662L36.9605 11.5291L36.1729 10.1157C35.7398 9.33825 35.3625 8.67842 35.3346 8.64941C35.3068 8.62028 34.9167 9.25639 34.4679 10.0628ZM9.72518 8.97879C9.97256 9.34616 9.94953 9.7115 9.66207 9.98227C9.43587 10.1953 9.20485 10.2106 6.2191 10.2106C3.23336 10.2106 3.00233 10.1953 2.77614 9.98227C2.48868 9.7115 2.46564 9.34616 2.71303 8.97879C2.89119 8.71389 2.91181 8.71234 6.2191 8.71234C9.5264 8.71234 9.54701 8.71389 9.72518 8.97879ZM22.5927 8.91071C23.0142 9.30769 22.7815 10.0627 22.1907 10.215C22.0526 10.2506 19.7453 10.2642 17.0635 10.2452L12.1874 10.2106L11.9673 9.92761C11.6849 9.56467 11.6882 9.25315 11.9775 8.95206C12.201 8.71953 12.3614 8.71234 17.295 8.71234C21.8671 8.71234 22.4035 8.73247 22.5927 8.91071ZM5.56448 11.8467C5.88926 12.0246 5.98485 12.1811 5.98704 12.5384C5.99072 13.1536 5.72802 13.2671 4.30097 13.2671C3.1479 13.2671 2.96732 13.2389 2.76405 13.0274C2.44261 12.6928 2.47244 12.2558 2.83718 11.9573C3.09539 11.7459 3.30234 11.7089 4.2268 11.7089C4.82418 11.7089 5.42605 11.7708 5.56448 11.8467ZM22.6399 12.0015C22.8587 12.3129 22.8466 12.779 22.6128 13.0478C22.432 13.2558 22.0518 13.2671 15.242 13.2671C8.21532 13.2671 8.05685 13.2619 7.83146 13.0274C7.52269 12.706 7.54124 12.3596 7.8864 12.0004L8.17167 11.7036L15.3241 11.7362C22.2522 11.7677 22.4816 11.7761 22.6399 12.0015ZM5.73274 15.0119C6.05856 15.2493 6.07146 15.818 5.75843 16.1438C5.55769 16.3527 5.37457 16.3835 4.33437 16.3835C3.30108 16.3835 3.09988 16.35 2.83718 16.135C2.47244 15.8365 2.44261 15.3995 2.76405 15.065C2.96594 14.8549 3.1479 14.8253 4.23555 14.8253C5.17268 14.8253 5.53961 14.8711 5.73274 15.0119ZM10.8455 15.0236C10.9683 15.1392 11.0562 15.3866 11.0562 15.6161C11.0562 16.2465 10.7525 16.3835 9.35537 16.3835C8.24664 16.3835 8.14748 16.3636 7.88386 16.0892C7.53962 15.7311 7.52546 15.4345 7.83595 15.0877C8.0504 14.848 8.18227 14.8253 9.35284 14.8253C10.3843 14.8253 10.6761 14.8641 10.8455 15.0236ZM22.5927 15.0236C22.8706 15.2854 22.8608 15.8442 22.573 16.1438C22.3508 16.3751 22.1892 16.3835 17.9818 16.3835C13.7444 16.3835 13.6123 16.3764 13.3175 16.135C12.9528 15.8365 12.9229 15.3995 13.2444 15.065C13.4668 14.8335 13.6282 14.8253 17.9284 14.8253C21.911 14.8253 22.4044 14.8462 22.5927 15.0236ZM9.69385 18.14C9.95171 18.3829 9.96392 18.759 9.72518 19.1136C9.54701 19.3785 9.5264 19.38 6.2191 19.38C2.91181 19.38 2.89119 19.3785 2.71303 19.1136C2.48142 18.7696 2.48545 18.4356 2.72431 18.1609C2.90052 17.9583 3.16368 17.9417 6.19906 17.9417C9.09348 17.9417 9.50832 17.9652 9.69385 18.14ZM22.5927 18.14C22.855 18.3871 22.8645 18.8713 22.6128 19.1608C22.4336 19.3669 22.1149 19.38 17.264 19.38H12.1057L11.9265 19.1136C11.8279 18.9671 11.7472 18.7633 11.7472 18.6608C11.7472 18.5584 11.8279 18.3546 11.9265 18.2081L12.1057 17.9417H17.244C21.8635 17.9417 22.4034 17.9617 22.5927 18.14ZM0 27.1247C0 28.7417 0.180239 29.2402 0.921809 29.674L1.35576 29.9278H20.5H39.6442L40.0782 29.674C40.8198 29.2402 41 28.7417 41 27.1247V25.7327H20.5H0V27.1247ZM17.5864 31.5739C17.5586 31.6245 17.4701 31.8816 17.3898 32.1453C16.811 34.0443 15.3737 35.9851 13.6475 37.199C12.261 38.1739 11.7485 38.4086 10.8764 38.4676C10.3834 38.5009 9.94526 38.603 9.76341 38.727C9.43438 38.9515 9.04511 39.6897 9.15671 39.8777C9.25356 40.0408 31.7464 40.0408 31.8433 39.8777C31.9549 39.6897 31.5656 38.9515 31.2366 38.727C31.0537 38.6023 30.6196 38.5019 30.1236 38.4694C29.3743 38.4204 29.2164 38.358 28.1163 37.678C25.8361 36.2681 24.3693 34.467 23.6107 32.1453L23.4149 31.546L20.5259 31.514C18.9369 31.4963 17.6141 31.5233 17.5864 31.5739Z" fill="#BB00A8"/>
</svg>
