<svg width="35" height="45" viewBox="0 0 35 45" fill="none" xmlns="http://www.w3.org/2000/svg">
<path fill-rule="evenodd" clip-rule="evenodd" d="M14.4473 0.0679332C14.2498 0.129395 14.1413 0.225125 13.4896 0.912825C12.8769 1.55946 12.7102 1.70935 12.4874 1.81403C12.0789 2.00604 11.6391 2.01091 10.799 1.83273C10.0361 1.6709 9.6721 1.65638 9.41407 1.77761C9.19649 1.87981 8.9393 2.16576 8.82381 2.43393C8.30142 3.64695 8.12611 3.99294 7.92928 4.19928C7.58301 4.56226 7.31897 4.65808 6.36298 4.76782C5.39224 4.87922 5.28574 4.90531 5.0396 5.09199C4.72919 5.32741 4.64461 5.57404 4.53575 6.56105C4.42123 7.59892 4.40212 7.67765 4.18245 8.01693C3.95609 8.36659 3.77805 8.49131 2.88874 8.92347C2.08316 9.31493 1.91795 9.42348 1.78179 9.65072C1.58322 9.98205 1.58305 10.1407 1.7801 11.1837C1.99666 12.3298 1.99724 12.5568 1.78464 13.0021C1.66336 13.2562 1.5381 13.4014 0.962316 13.9552C0.588746 14.3145 0.235621 14.6898 0.177628 14.7891C0.0489027 15.0096 0.00137694 15.4713 0.0816408 15.7221C0.111706 15.8161 0.323991 16.2361 0.553336 16.6555C1.00802 17.4867 1.09269 17.7501 1.04365 18.1803C1.00855 18.4883 0.915503 18.7024 0.451959 19.5412C0.0292599 20.3061 -0.0263724 20.4599 0.00877084 20.7661C0.0492591 21.1187 0.199943 21.3244 0.922362 22.0135C1.67391 22.7304 1.82584 22.9569 1.9151 23.4936C1.96517 23.7948 1.95822 23.864 1.78406 24.7984C1.58465 25.8683 1.58425 26.0177 1.7801 26.3445C1.92838 26.5919 2.08583 26.6944 2.8935 27.0698C3.79222 27.4874 3.98081 27.6091 4.19336 27.9086C4.44569 28.2642 4.48497 28.4179 4.58212 29.4295C4.63227 29.9515 4.70367 30.4646 4.74077 30.5696C4.82736 30.8147 5.18316 31.1611 5.41121 31.2223C5.50595 31.2477 5.94896 31.3119 6.39567 31.3651C7.30031 31.4727 7.47972 31.523 7.78764 31.7562C8.09774 31.9909 8.18472 32.1311 8.58685 33.0443C8.98416 33.9465 9.10816 34.1209 9.49647 34.3236C9.79985 34.4818 10.005 34.4786 10.8874 34.3017C11.7778 34.1231 12.1314 34.1305 12.5579 34.3363C12.8034 34.4547 12.9398 34.5781 13.5122 35.1988C14.2017 35.9465 14.3735 36.0795 14.7124 36.1274C15.0284 36.172 15.2874 36.0758 16.0998 35.6119C16.9835 35.1073 17.2839 35.0122 17.7521 35.0888C18.115 35.1481 18.09 35.1367 18.8346 35.5864C19.5964 36.0465 19.824 36.1437 20.1379 36.1431C20.5509 36.1423 20.7413 36.0101 21.4712 35.2178C22.2062 34.4199 22.4089 34.2808 22.9555 34.1995C23.2405 34.1572 23.3438 34.1683 24.1303 34.3269C25.0592 34.5142 25.2455 34.5177 25.5567 34.354C25.8337 34.2082 26.0258 33.9156 26.3899 33.0845C26.7622 32.2346 26.9252 31.9784 27.2399 31.7476C27.5281 31.5363 27.7736 31.4726 28.7224 31.3631C29.7606 31.2433 29.9767 31.1396 30.2343 30.6381C30.2648 30.5787 30.338 30.1139 30.3971 29.6053C30.5115 28.6198 30.548 28.4546 30.7105 28.1881C30.9362 27.8182 31.1493 27.6679 32.036 27.2533C33.0807 26.7649 33.2419 26.6265 33.3513 26.1243C33.3873 25.9592 33.3651 25.7669 33.2193 24.9826C33.0209 23.915 33.0088 23.7022 33.1272 23.3549C33.2527 22.9865 33.3604 22.8515 34.0968 22.1398C34.4853 21.7642 34.8057 21.4149 34.8521 21.3165C34.8981 21.2189 34.9402 21.0053 34.9502 20.8187L34.9678 20.4919L34.4974 19.5496C33.7903 18.1332 33.7851 17.961 34.4135 16.8047C35.0422 15.6477 35.0132 15.7195 34.9913 15.3803C34.9807 15.2159 34.9362 15.0092 34.8924 14.9209C34.8486 14.8327 34.468 14.3988 34.0467 13.9567C33.3281 13.2027 33.2745 13.1344 33.1842 12.8568C33.05 12.4443 33.0622 12.1 33.2444 11.1546C33.4201 10.2433 33.4264 10.1493 33.331 9.86078C33.2084 9.48967 33.0054 9.33491 32.0784 8.90583C31.3909 8.58754 31.1972 8.47647 31.0058 8.29071C30.6227 7.91891 30.554 7.71973 30.4286 6.61645C30.3114 5.58538 30.2474 5.36972 29.9932 5.14799C29.7459 4.93232 29.5335 4.87334 28.6337 4.77049C27.2188 4.60879 27.0356 4.47108 26.4334 3.11589C26.2257 2.6485 25.995 2.19075 25.9209 2.09865C25.7298 1.86158 25.3794 1.69189 25.0808 1.69189C24.9492 1.69189 24.5203 1.7539 24.1278 1.8297C23.2907 1.99134 22.957 2.00122 22.5696 1.87595C22.2093 1.75942 22.0092 1.59079 21.3038 0.809608C20.7209 0.164122 20.597 0.0728483 20.2192 0.0105598C19.9261 -0.0378103 19.6358 0.0711946 18.8591 0.521271C18.4506 0.758022 18.0424 0.977686 17.9521 1.00947C17.7355 1.08563 17.1656 1.0832 16.9416 1.00506C16.8436 0.970933 16.4487 0.759354 16.064 0.535005C15.1183 -0.01668 14.9114 -0.0764421 14.4473 0.0679332ZM18.8569 3.89698C22.5992 4.32064 25.8471 6.13417 28.1938 9.11047C30.6614 12.2401 31.717 16.3496 31.0787 20.3417C30.5452 23.6785 28.8732 26.7014 26.3621 28.8689C24.5988 30.3909 22.4757 31.4591 20.2654 31.9364C19.1629 32.1745 18.792 32.2124 17.5429 32.2142C16.0385 32.2165 14.9908 32.0858 13.8554 31.7542C12.3406 31.3117 10.5065 30.3602 9.19965 29.3387C6.36458 27.1226 4.50034 23.9652 3.91466 20.3876C3.63543 18.6819 3.68501 16.6341 4.04593 14.9672C5.06548 10.2587 8.34 6.39624 12.747 4.70384C13.686 4.3432 14.881 4.04687 15.8949 3.92321C16.5047 3.84879 18.2916 3.83299 18.8569 3.89698ZM16.563 5.37192C15.5172 5.44964 14.197 5.74478 13.1939 6.12513C12.049 6.55922 10.513 7.47903 9.56997 8.29526C8.96398 8.81975 8.08976 9.76753 7.62675 10.4019C5.28115 13.616 4.54181 17.6482 5.5823 21.5527C6.12152 23.5764 7.18392 25.4539 8.65638 26.9854C10.7161 29.1276 13.2156 30.3765 16.0953 30.7025C19.4686 31.0843 22.7958 30.0764 25.3599 27.8959C25.8721 27.4604 26.6685 26.6411 27.0991 26.1066C27.4761 25.6388 28.1593 24.5814 28.4496 24.0165C29.8871 21.2196 30.2468 17.943 29.4569 14.8407C29.0354 13.1853 28.2742 11.6118 27.2069 10.19C26.7817 9.62348 25.698 8.50504 25.1595 8.07702C23.1142 6.45118 20.8516 5.55456 18.3224 5.3677C17.6231 5.31602 17.3051 5.3168 16.563 5.37192ZM18.7261 12.6705C19.3308 13.8705 19.8481 14.8768 19.8757 14.9065C19.904 14.9371 21.0112 15.1146 22.4202 15.3146C23.7921 15.5092 24.929 15.6817 24.9467 15.6979C24.9644 15.714 24.1474 16.5181 23.1312 17.4848C21.5677 18.9721 21.287 19.2581 21.3063 19.3442C21.3188 19.4002 21.5104 20.4898 21.732 21.7657C21.9536 23.0416 22.1456 24.1224 22.1586 24.1676C22.1751 24.2248 21.4846 23.8901 19.8849 23.0654L17.5874 21.881L15.2936 23.0635C14.0319 23.714 12.9998 24.2203 12.9999 24.1888C13.0001 24.1572 13.1905 23.0468 13.4231 21.7213C13.6557 20.3958 13.8459 19.2899 13.8457 19.2638C13.8456 19.2376 13.0238 18.4322 12.0195 17.4739C11.0153 16.5156 10.1935 15.7147 10.1935 15.6939C10.1935 15.6732 10.2386 15.6562 10.2938 15.6561C10.4113 15.6561 15.1824 14.9758 15.2509 14.9494C15.2764 14.9396 15.8075 13.918 16.4312 12.6792C17.0549 11.4403 17.5791 10.4407 17.596 10.4577C17.613 10.4746 18.1216 11.4704 18.7261 12.6705ZM7.43197 38.7887C6.78278 40.8237 6.23741 42.5546 6.22004 42.635C6.17265 42.8546 6.25412 43.0637 6.40872 43.1193C6.55905 43.1733 6.48355 43.1979 9.45861 42.125C10.512 41.7451 11.4381 41.4207 11.5167 41.404C11.6899 41.3673 12.1546 41.4828 12.3599 41.6137C12.4408 41.6653 13.0883 42.4269 13.7988 43.3062C14.6663 44.3798 15.1347 44.9238 15.2246 44.9623C15.4223 45.0467 15.5685 44.9895 15.6649 44.7901C15.7106 44.6958 16.1367 42.8462 16.612 40.68C17.0872 38.5137 17.4861 36.7413 17.4984 36.7412C17.5106 36.7411 17.9415 38.532 18.456 40.7209C18.9705 42.9099 19.4258 44.7593 19.4679 44.8307C19.563 44.9922 19.7366 45.0424 19.907 44.9578C19.9804 44.9213 20.5405 44.2674 21.2203 43.4243C22.6292 41.677 22.6585 41.6447 22.9499 41.5117C23.4081 41.3027 23.4445 41.3116 26.0949 42.2753C27.4055 42.7519 28.5433 43.1423 28.6232 43.1429C28.8173 43.1445 28.9217 43.0286 28.9191 42.815C28.9179 42.7188 28.3845 40.9843 27.7051 38.867L26.4932 35.0907L26.2226 35.2711C25.5491 35.72 25.2213 35.7544 24.0051 35.504C23.505 35.401 23.0589 35.3167 23.0139 35.3167C22.9315 35.3167 22.3277 35.9373 21.8296 36.534C21.3774 37.0755 20.8339 37.3429 20.1727 37.3487C19.9635 37.3506 19.7021 37.3265 19.5918 37.2953C19.4816 37.264 18.9885 37.0127 18.4961 36.7369C18.0037 36.4611 17.5592 36.2354 17.5082 36.2354C17.4573 36.2354 17.3891 36.2621 17.3568 36.2947C17.2839 36.3682 16.1394 37.0157 15.8058 37.1722C15.1858 37.463 14.3807 37.3997 13.7985 37.0144C13.6195 36.8959 13.1099 36.365 12.4217 35.58C12.3161 35.4596 12.1869 35.35 12.1345 35.3364C12.0821 35.3229 11.6691 35.3887 11.2166 35.4828C10.1843 35.6974 9.81334 35.7071 9.3743 35.5309C9.20539 35.4632 8.96986 35.3356 8.8508 35.2474C8.73178 35.1592 8.62943 35.0873 8.62337 35.0878C8.61727 35.0882 8.08117 36.7536 7.43197 38.7887Z" fill="#BB00A8"/>
</svg>
