<svg width="38" height="45" viewBox="0 0 38 45" fill="none" xmlns="http://www.w3.org/2000/svg">
<path fill-rule="evenodd" clip-rule="evenodd" d="M9.48703 4.06866L0 8.16037L0.00023693 14.6208C0.000426434 21.0358 0.0176239 21.9087 0.169369 23.2174C1.02948 30.6335 5.32463 37.6224 11.5511 41.7372C13.6882 43.1495 15.9688 44.1837 18.3779 44.8329L18.9978 45L19.6219 44.8318C24.7829 43.4409 29.3853 40.2521 32.816 35.6902C32.949 35.5133 33.2808 35.0378 33.5534 34.6336C35.6866 31.47 37.0982 27.914 37.6839 24.2281C37.9717 22.4173 37.9637 22.6612 37.9826 15.1036L38 8.16133L28.5581 4.09223C23.3651 1.85426 19.0842 0.0127914 19.0451 6.59372e-05C19.006 -0.0126595 14.7049 1.81819 9.48703 4.06866ZM23.2144 24.5265L14.7814 32.704L10.565 28.6155L6.34856 24.5271L7.805 23.1143C8.60603 22.3372 9.27351 21.7014 9.28824 21.7014C9.30302 21.7014 10.5396 22.8903 12.0363 24.3435L14.7576 26.9856L21.7217 20.232L28.6858 13.4784L30.1666 14.9137L31.6474 16.3491L23.2144 24.5265Z" fill="#BB00A8"/>
</svg>
