<svg width="48" height="50" viewBox="0 0 48 50" fill="none" xmlns="http://www.w3.org/2000/svg">
<path fill-rule="evenodd" clip-rule="evenodd" d="M37.2211 0.132891C37.0583 0.205855 36.8191 0.412928 36.6896 0.592946C36.1696 1.31653 33.3549 6.08782 33.2328 6.45273C32.8693 7.53928 33.9177 8.64137 34.9979 8.30819C35.1936 8.24773 35.457 8.09926 35.5832 7.97805C35.7094 7.85693 36.5773 6.48311 37.5119 4.92518C39.0227 2.40709 39.2153 2.03836 39.2476 1.60419C39.3325 0.462841 38.2457 -0.326285 37.2211 0.132891ZM20.6688 2.56386C19.9417 2.95876 19.6317 3.87623 19.9344 4.73783C20.2087 5.51895 19.0637 9.28241 17.7001 12.082C16.1627 15.2382 13.6633 18.8496 11.1201 21.5897L10.5209 22.2353L10.1205 22.0302C9.60275 21.765 8.71846 21.7562 8.25236 22.0118C7.84745 22.2338 3.37894 25.6378 2.63089 26.2943C1.92239 26.9159 1.26826 27.9419 0.911639 28.9908C0.416603 30.4469 0.531871 32.3707 1.19502 33.718C1.32509 33.9823 1.41806 34.2092 1.40146 34.2221C1.38495 34.235 1.12339 34.4357 0.820183 34.6681C0.51707 34.9004 0.207507 35.213 0.132369 35.3626C-0.0300495 35.686 -0.0457037 36.2613 0.100397 36.5422C0.157889 36.6528 0.891241 37.6883 1.72999 38.8433C3.31016 41.0193 3.50711 41.2119 4.15223 41.2119C4.43609 41.2119 5.57482 40.4955 5.66172 40.2624C5.68791 40.1922 5.6511 40.0592 5.58004 39.9667C5.50898 39.8741 5.67074 40.0175 5.93951 40.2853C6.53283 40.8766 7.27747 41.3496 8.13169 41.6778C9.00706 42.0142 10.6716 42.0953 11.5725 41.8455C11.9103 41.7518 12.2934 41.6563 12.4238 41.6334C12.6708 41.5897 12.565 41.5027 19.677 47.5989C22.4408 49.968 22.478 49.9968 22.7802 50C23.1336 50.0038 28.9076 45.5922 28.9896 45.2558C29.0971 44.815 28.9389 44.5811 27.9724 43.7515C26.9234 42.851 26.4033 42.4829 26.1787 42.4822C26.0996 42.4819 25.7581 42.6224 25.4197 42.7943C24.5904 43.2158 23.7672 43.2715 23.1237 42.9496C22.704 42.7397 17.3571 38.3236 17.3571 38.1869C17.3571 38.1522 17.6985 37.8653 18.1155 37.5494C19.2427 36.6958 19.6266 35.9702 19.4904 34.9507L19.4274 34.4792L20.0288 34.1748C21.9614 33.1968 24.3008 32.2139 26.1801 31.5907C29.6234 30.4486 32.3245 29.9775 35.4495 29.9735C37.5868 29.9707 38.0869 30.033 38.4964 30.3529C38.8723 30.6465 39.6867 30.7526 40.1261 30.5652C40.508 30.4023 40.9475 29.8717 41.0657 29.4307C41.2824 28.6229 41.2 28.4783 37.9878 24.0265C36.3462 21.7515 35.0031 19.8574 35.0031 19.8176C35.0031 19.7777 35.1321 19.4612 35.2897 19.1144C36.3284 16.8291 35.8396 14.2001 34.0521 12.4592C32.7728 11.2133 31.1895 10.7215 29.216 10.957L28.5993 11.0306L25.6109 6.90341C22.9888 3.28226 22.5705 2.74934 22.1991 2.55653C21.6585 2.27581 21.195 2.27806 20.6688 2.56386ZM42.2058 5.65443C40.8848 6.56682 37.1988 9.48578 37.0106 9.76855C36.8284 10.0424 36.796 10.1944 36.8291 10.6188C36.8977 11.5 37.4465 12.0486 38.259 12.0486C38.8409 12.0486 38.5409 12.2434 41.8027 9.74784C43.1161 8.74295 44.2672 7.80047 44.3608 7.65347C44.4694 7.48283 44.5309 7.20211 44.5309 6.87616C44.5309 5.62307 43.2362 4.94276 42.2058 5.65443ZM43.371 12.8857C39.9787 13.8247 39.9426 13.8365 39.6665 14.0943C38.705 14.9921 39.2927 16.6952 40.5638 16.6952C40.9044 16.6952 46.4901 15.2188 47.1465 14.9553C47.6461 14.7547 48.0006 14.1718 48 13.5515C47.9993 12.733 47.3746 12.1003 46.5773 12.1107C46.3425 12.1138 44.8996 12.4626 43.371 12.8857ZM11.4925 30.3698C12.8699 32.277 14.1738 34.0843 14.39 34.3861L14.7831 34.9348L13.0448 36.2668C12.0887 36.9994 11.1431 37.6691 10.9436 37.7549C10.4001 37.9887 9.51414 37.9051 9.02869 37.5743C8.77112 37.3989 8.05778 36.5017 6.83177 34.8113C5.83325 33.4345 4.93264 32.1473 4.83037 31.9509C4.5636 31.4384 4.57754 30.5335 4.86092 29.97C5.03709 29.6197 5.42104 29.2734 6.92436 28.1088C8.31232 27.0337 8.79825 26.7059 8.87965 26.7902C8.93932 26.8518 10.1151 28.4627 11.4925 30.3698Z" fill="#BB00A8"/>
</svg>
