<svg width="58" height="49" viewBox="0 0 58 49" fill="none" xmlns="http://www.w3.org/2000/svg">
<path fill-rule="evenodd" clip-rule="evenodd" d="M11.3084 0.0564575C10.0387 0.237532 8.79635 0.945659 7.65724 2.1376C6.25127 3.60876 5.78066 4.95045 6.00454 6.84874C6.05582 7.28351 6.0978 7.6726 6.0978 7.71342C6.0978 7.75429 5.99069 7.82975 5.85971 7.88122C5.4521 8.04139 5.36518 8.42996 5.53571 9.32923C5.70612 10.2281 6.02615 11.0329 6.4607 11.6558C6.60636 11.8645 6.78429 12.2646 6.95606 12.7692C7.36764 13.9785 7.72403 14.6319 8.31537 15.2613C10.1099 17.1714 13.2629 17.2856 15.0387 15.5048C15.7111 14.8305 16.3162 13.7262 16.5701 12.7101C16.708 12.1581 16.7107 12.1534 16.934 12.1088C17.2703 12.0415 17.5528 11.6171 17.8461 10.7386C18.1942 9.69617 18.2627 8.64959 18.0064 8.28957C17.8556 8.0777 17.8528 7.96841 17.9767 7.12535C18.1137 6.19321 18.0661 4.38643 17.8901 3.83705C17.6831 3.19135 17.0731 2.3817 16.6651 2.21117C16.5634 2.16864 16.2024 1.88805 15.863 1.58762C15.0913 0.904493 14.4827 0.526766 13.7801 0.29481C12.9089 0.00723505 12.1598 -0.0649697 11.3084 0.0564575ZM45.8581 0.0231687C45.1771 0.122265 44.7281 0.262884 44.0817 0.579364C42.6823 1.26463 41.4462 2.4279 40.8402 3.62973C40.5085 4.28781 40.2631 5.3521 40.2623 6.13658C40.2621 6.32157 40.2934 6.7452 40.3319 7.07797L40.4019 7.68309L40.1298 7.93684C39.8082 8.23674 39.7603 8.38837 39.8095 8.95263C39.8899 9.87518 40.3433 11.1541 40.7652 11.6485C40.9721 11.891 41.061 12.0801 41.2611 12.7036C41.6706 13.9796 42.0925 14.7357 42.7645 15.3975C43.3919 16.0154 44.0608 16.3865 44.9996 16.6372C45.7058 16.8259 46.6779 16.8273 47.335 16.6406C49.0481 16.1538 50.285 14.8405 50.8074 12.9537C51.0128 12.2118 51.0553 12.1296 51.2331 12.1296C51.4637 12.1296 51.7826 11.6998 52.0392 11.0432C52.543 9.75422 52.6429 8.89564 52.362 8.26943L52.2047 7.91884L52.3006 7.10699C52.4509 5.83515 52.4616 5.60183 52.3997 4.94814C52.2641 3.51672 51.907 2.82363 51.0094 2.2502C50.7815 2.10455 50.3685 1.76811 50.0917 1.50251C49.3305 0.772167 48.5316 0.346283 47.5401 0.142227C47.0714 0.0457364 46.1507 -0.0194197 45.8581 0.0231687ZM28.2694 2.08737C27.2976 2.264 26.7125 2.51823 25.7111 3.19923C24.3275 4.13996 23.249 5.49746 22.7412 6.93741L22.5289 7.53909L22.5294 8.75337C22.5296 9.52523 22.5571 10.0847 22.6049 10.2889C22.6866 10.638 22.6546 10.7053 22.406 10.7072C22.2321 10.7084 22.0479 10.9303 21.9667 11.2364C21.8381 11.7209 22.0387 12.8596 22.432 13.877C22.6227 14.3706 23.0023 15.032 23.0948 15.032C23.187 15.032 23.3633 15.4478 23.6224 16.2759C24.041 17.6141 24.5355 18.4414 25.415 19.2755C25.9617 19.7939 26.5465 20.1439 27.325 20.4187C27.9129 20.6262 27.9243 20.6276 28.9237 20.6286C29.9922 20.6296 30.2912 20.5802 31.035 20.2796C31.8867 19.9354 32.7038 19.2557 33.2465 18.44C33.6669 17.8078 33.8713 17.3499 34.16 16.3925C34.2892 15.9642 34.4261 15.5763 34.4643 15.5303C34.5024 15.4843 34.5949 15.4467 34.6699 15.4467C35.2579 15.4467 36.0586 13.4492 36.0586 11.9821C36.0586 11.6167 36.0317 11.5035 35.8747 11.2092L35.6908 10.8645L35.8007 10.2087C35.8862 9.69843 35.9098 9.25744 35.9068 8.22027C35.9025 6.72139 35.8412 6.33377 35.5097 5.71129C35.2709 5.26272 34.7536 4.69723 34.4352 4.53665C34.1685 4.40213 33.3941 3.79221 33.3941 3.71669C33.3941 3.63358 32.5399 2.9777 32.1451 2.75771C31.025 2.13351 29.4831 1.86685 28.2694 2.08737ZM7.1636 16.4296C6.72224 16.7339 5.3261 17.4539 4.4991 17.8038C4.18972 17.9347 3.45698 18.2074 2.87079 18.41C2.2846 18.6124 1.65566 18.8533 1.47317 18.9451C0.915404 19.2258 0.351122 19.9804 0.185449 20.6671C0.0744284 21.1272 5.92528e-05 22.2287 4.16181e-08 23.4135C-5.91695e-05 24.5866 0.0630599 25.2003 0.206173 25.4189C0.407491 25.7262 1.92111 26.4519 3.43057 26.9647C6.48013 28.0008 10.0368 28.5273 12.8346 28.357C13.4444 28.3199 13.949 28.284 13.9559 28.2772C13.9629 28.2704 13.9972 27.7885 14.032 27.2063C14.1422 25.3622 14.3184 24.5054 14.775 23.5912C15.4413 22.2573 16.2163 21.6604 18.1473 20.994C19.8329 20.4123 22.197 19.3505 22.3436 19.1093C22.4506 18.9332 22.2832 18.8397 21.2367 18.4911C19.5661 17.9345 17.8979 17.1902 16.6245 16.4334L16.1675 16.1617L15.9819 16.7667C15.1434 19.5013 13.7252 23.8695 13.6251 24.026C13.5788 24.0984 13.2995 23.3994 12.7239 21.7704C12.5875 21.3843 12.5863 21.3657 12.687 21.2076C13.3126 20.2254 13.4992 19.7796 13.4992 19.2668C13.4992 18.4876 13.0221 18.0752 12.0454 18.0102C11.4144 17.9681 10.9739 18.0924 10.6363 18.4075L10.3906 18.637L10.3926 19.2186C10.3949 19.8955 10.5176 20.2554 10.9864 20.9609L11.2636 21.378L10.9243 22.3365C10.5076 23.5139 10.2587 24.0759 10.187 24.0017C10.1577 23.9714 9.67747 22.5205 9.11988 20.7776C7.90232 16.9721 7.63101 16.1564 7.58412 16.1609C7.56452 16.1628 7.37528 16.2837 7.1636 16.4296ZM41.2692 16.4887C40.6366 16.8733 39.1701 17.6037 38.4334 17.901C38.088 18.0404 37.3516 18.3076 36.797 18.4948C35.7182 18.8588 35.5499 18.9423 35.605 19.086C35.6491 19.2009 37.2045 19.9632 38.2198 20.3675C38.6432 20.5361 39.4114 20.8175 39.927 20.9929C41.2174 21.432 41.6603 21.6594 42.1917 22.1558C43.3368 23.2256 43.8023 24.4217 43.9373 26.6417C43.972 27.2118 44.0135 27.8146 44.0295 27.9813L44.0586 28.2843L44.4255 28.3218C48.0485 28.6917 53.3097 27.742 56.7038 26.1052C57.516 25.7137 57.8059 25.4911 57.9187 25.1727C58.0427 24.8227 58.0187 21.3535 57.8887 20.822C57.683 19.9816 57.1735 19.2831 56.5047 18.9247C56.3355 18.8341 55.736 18.6035 55.1724 18.4122C53.6002 17.8788 52.8065 17.5248 51.2958 16.6837C50.8346 16.4269 50.4339 16.2167 50.4054 16.2167C50.3769 16.2167 50.0377 17.2096 49.6517 18.4231C48.6635 21.53 47.8418 24.0354 47.811 24.0354C47.7193 24.0354 47.0435 22.2527 46.8958 21.6206L46.8227 21.3086L47.0766 20.8883C47.6114 20.0029 47.8069 19.0599 47.5541 18.5851C47.337 18.1773 46.3742 17.8677 45.7133 17.9931C45.1016 18.1091 44.7313 18.3836 44.5516 18.8543C44.408 19.2305 44.4898 19.5475 45.0004 20.5933L45.4117 21.4359L44.954 22.7116C44.7022 23.4132 44.4712 23.9914 44.4406 23.9965C44.3507 24.0115 44.1618 23.4667 43.1294 20.2149C41.8334 16.1323 41.8618 16.2166 41.7825 16.2177C41.7444 16.2182 41.5135 16.3402 41.2692 16.4887ZM23.969 20.1503C23.8817 20.1959 23.5381 20.386 23.2054 20.5728C21.9751 21.2636 20.4298 21.9379 18.7986 22.4958C18.2124 22.6963 17.5765 22.9435 17.3856 23.045C16.8084 23.3522 16.177 24.1838 15.9146 24.9823C15.8005 25.3295 15.7854 25.5311 15.7637 26.9971C15.7504 27.893 15.766 28.9591 15.7982 29.3664L15.8569 30.1068L16.1424 30.3657C16.6981 30.8697 18.7729 31.7869 20.6309 32.3497L21.5116 32.6165L21.9314 32.2323C22.1623 32.0211 22.524 31.7629 22.7352 31.6586C23.09 31.4835 23.1643 31.4691 23.7139 31.4691H24.3086L24.9148 31.7716C25.4905 32.0588 25.5223 32.0678 25.5463 31.9493C25.6641 31.3664 25.7373 31.158 25.9289 30.8616C26.1909 30.456 26.6209 30.0625 27.0278 29.8557C27.2885 29.7233 27.4323 29.7 28.2712 29.6548C29.3815 29.5949 30.206 29.6605 30.7094 29.8486C31.3376 30.0834 32.0663 30.976 32.1807 31.6505C32.2682 32.1665 32.2866 32.1778 32.6133 31.9152C33.1001 31.5238 34.11 31.3361 34.7023 31.527C35.154 31.6726 35.6186 31.9386 36.0095 32.2755C36.2205 32.4574 36.4011 32.5649 36.4954 32.5649C36.9114 32.5649 39.715 31.5372 40.8756 30.9593C41.8003 30.4988 42.0298 30.3367 42.0682 30.1165C42.1586 29.5982 42.2214 28.666 42.2525 27.3821C42.286 25.9914 42.2835 25.9477 42.1349 25.3757C41.9436 24.6397 41.5958 23.9216 41.2298 23.5071C40.8901 23.1223 40.5201 22.9377 39.2094 22.4993C37.7817 22.0219 35.6341 21.0657 34.4328 20.3728C34.1411 20.2045 33.8613 20.0673 33.8111 20.0678C33.7431 20.0687 33.5111 20.7218 32.9014 22.6296C31.2586 27.7698 30.9433 28.7169 30.8813 28.6974C30.8061 28.6738 30.4332 27.7584 30.0275 26.6024L29.7332 25.7635L29.9911 25.3488C31.0052 23.7187 31.0478 22.7027 30.1224 22.2149C29.8294 22.0604 29.7685 22.0511 29.0421 22.0511C28.3158 22.0511 28.253 22.0607 27.9289 22.2198C27.4813 22.4397 27.2822 22.7285 27.2475 23.2079C27.2071 23.7671 27.5405 24.6883 28.0616 25.457C28.1609 25.6036 28.2423 25.7466 28.2425 25.7747C28.243 25.8713 27.3404 28.3298 27.2089 28.5899L27.0775 28.8501L26.8869 28.2642C26.7821 27.9419 26.1918 26.1006 25.5751 24.1722C24.3456 20.3279 24.2733 20.1152 24.1868 20.087C24.1542 20.0763 24.0562 20.1049 23.969 20.1503ZM28.1619 31.557C27.6642 31.6475 27.5292 31.8666 27.3222 32.9203C27.2678 33.1972 27.1906 33.4868 27.1506 33.5637C27.0982 33.6645 26.8495 33.8014 26.2611 34.0534L25.4443 34.4032L24.6427 33.8691C24.2019 33.5753 23.7909 33.335 23.7295 33.335C23.6074 33.335 22.5591 34.3195 22.1958 34.7754L21.9685 35.0607L22.1107 35.3381C22.189 35.4906 22.415 35.8667 22.613 36.1739C22.811 36.4811 22.973 36.795 22.973 36.8716C22.973 36.9482 22.8963 37.1633 22.8026 37.3497C22.7089 37.536 22.5469 37.8943 22.4426 38.1458C22.2705 38.5606 22.2354 38.6059 22.0652 38.6332C20.6431 38.8616 20.4034 38.9451 20.2984 39.2487C20.1934 39.5523 20.1939 41.0631 20.2991 41.3123C20.3987 41.5484 20.6401 41.6502 21.5481 41.8388C21.9204 41.9161 22.2624 42.0168 22.308 42.0624C22.3536 42.108 22.5448 42.5063 22.7328 42.9476L23.0748 43.7499L22.5519 44.5397C22.2643 44.9741 22.0282 45.3895 22.0273 45.4627C22.0261 45.5527 22.2308 45.8082 22.6599 46.2524C23.6768 47.3055 23.7344 47.3121 24.9119 46.5105L25.4594 46.1379L25.9777 46.3618C26.2628 46.4849 26.6376 46.6322 26.8106 46.6892C27.1825 46.8117 27.187 46.8205 27.3826 47.8035C27.6064 48.9283 27.6997 49.0022 28.8941 49C30.1243 48.9976 30.2128 48.9261 30.4652 47.7303C30.5494 47.3312 30.6458 46.961 30.6793 46.9076C30.7128 46.8541 31.1285 46.6588 31.6031 46.4736L32.4659 46.1368L33.0915 46.6068C33.7177 47.0771 33.9649 47.1841 34.2558 47.1111C34.4255 47.0685 35.3328 46.226 35.5938 45.8686C35.8798 45.4772 35.8139 45.2372 35.1608 44.2899L34.8115 43.7833L35.1007 43.1053C35.2598 42.7323 35.4081 42.3521 35.4303 42.2604C35.4827 42.0443 35.6723 41.9669 36.5219 41.8147C36.8907 41.7487 37.2593 41.6508 37.341 41.5973C37.6108 41.4204 37.6794 41.1471 37.6833 40.233C37.6864 39.5219 37.6712 39.377 37.5783 39.2353C37.4236 38.999 36.9508 38.8042 36.2659 38.6945C35.643 38.5947 35.4082 38.4935 35.406 38.324C35.4053 38.2677 35.2751 37.8956 35.1166 37.4971L34.8286 36.7724L35.3244 36.0298C35.597 35.6214 35.8366 35.2218 35.8567 35.1417C35.8838 35.0333 35.8462 34.937 35.7093 34.7641C35.3873 34.3573 34.2774 33.335 34.1578 33.335C34.0288 33.335 33.5176 33.6349 32.8695 34.0907L32.4337 34.3973L32.2182 34.3028C32.0997 34.2509 31.7254 34.0934 31.3865 33.9528C31.0476 33.8123 30.734 33.6608 30.6894 33.6163C30.6449 33.5718 30.5422 33.2221 30.4611 32.8392C30.2006 31.6089 30.1503 31.56 29.109 31.5261C28.7465 31.5142 28.3204 31.5281 28.1619 31.557ZM29.683 36.1483C30.3684 36.2679 30.779 36.4307 31.3145 36.795C32.1029 37.3315 32.7618 38.2816 33.0227 39.2582C33.1833 39.8596 33.1573 40.878 32.9666 41.4597C32.7291 42.1842 32.4274 42.6661 31.8546 43.2361C31.4253 43.6632 31.2457 43.7943 30.7781 44.0219C29.5407 44.624 28.2875 44.627 27.0881 44.0307C26.1473 43.5629 25.6385 43.0422 25.145 42.0422L24.8381 41.4202V40.2356V39.0509L25.0255 38.6554C25.5404 37.5681 26.3295 36.7798 27.314 36.3695C28.0671 36.0555 28.7732 35.9897 29.683 36.1483Z" fill="#BB00A8"/>
</svg>
