<svg width="83" height="25" viewBox="0 0 83 25" fill="none" xmlns="http://www.w3.org/2000/svg">
<path d="M73.9606 0.846191H58.2997C59.212 6.0158 64.2296 10.8813 69.7033 10.8813H82.1712C82.3232 10.4252 82.3232 9.66493 82.3232 9.20879C82.3232 4.64737 78.522 0.846191 73.9606 0.846191Z" fill="url(#paint0_linear_0_621)"/>
<path d="M59.668 11.7935V24.4134H67.2704V17.7234H73.9605C77.6096 17.7234 80.8026 15.1386 81.867 11.7935H59.668Z" fill="#4FAD50"/>
<path d="M32.9078 0.846191V24.2615H39.5979C39.5979 24.2615 41.2704 24.2615 42.1827 22.589C46.7441 13.6182 48.1125 10.8813 48.1125 10.8813H49.0248V24.2615H56.6272V0.846191H49.9371C49.9371 0.846191 48.2645 0.998248 47.3523 2.51872C43.5511 10.2731 41.4224 14.2264 41.4224 14.2264H40.5101V0.846191H32.9078Z" fill="#4FAD50"/>
<path d="M0.978027 24.4137V0.998444H8.58039C8.58039 0.998444 10.7091 0.998439 11.9255 4.34348C14.9664 13.1622 15.2705 14.3786 15.2705 14.3786C15.2705 14.3786 15.8787 12.2499 18.6155 4.34348C19.8319 0.998439 21.9606 0.998444 21.9606 0.998444H29.5629V24.4137H21.9606V11.7938H21.0483L16.791 24.4137H13.4459L9.18862 11.7938H8.27633V24.4137H0.978027Z" fill="#4FAD50"/>
<defs>
<linearGradient id="paint0_linear_0_621" x1="58.2726" y1="5.93567" x2="82.2693" y2="5.93567" gradientUnits="userSpaceOnUse">
<stop stop-color="#27B1E6"/>
<stop offset="1" stop-color="#148ACA"/>
</linearGradient>
</defs>
</svg>
