<svg width="80" height="50" viewBox="0 0 80 50" fill="none" xmlns="http://www.w3.org/2000/svg">
<path d="M50.8116 44.0162H29.4604V5.64453H50.8116V44.0162Z" fill="#6C6BBD"/>
<path d="M30.8282 24.8269C30.8282 17.043 34.4727 10.1094 40.1481 5.64104C35.9978 2.37358 30.7599 0.42334 25.0675 0.42334C11.5911 0.42334 0.666992 11.349 0.666992 24.8269C0.666992 38.3048 11.5911 49.2305 25.0675 49.2305C30.7599 49.2305 35.9978 47.2803 40.1481 44.0128C34.4727 39.5445 30.8282 32.6108 30.8282 24.8269Z" fill="#EB001B"/>
<path d="M79.6077 24.8269C79.6077 38.3048 68.6835 49.2305 55.2072 49.2305C49.5147 49.2305 44.2768 47.2802 40.125 44.0128C45.802 39.5444 49.4464 32.6108 49.4464 24.8269C49.4464 17.043 45.802 10.1093 40.125 5.641C44.2768 2.37353 49.5147 0.423294 55.2072 0.423294C68.6835 0.423294 79.6077 11.349 79.6077 24.8269Z" fill="#0099DF"/>
</svg>
