<svg width="50" height="50" viewBox="0 0 50 50" fill="none" xmlns="http://www.w3.org/2000/svg">
<path d="M31.3592 23.8838L26.0541 18.1071L20.1595 23.2943L25.4646 29.1889L31.3592 23.8838Z" fill="#137ABE"/>
<path d="M15.9154 13.3914L21.2205 19.1681L27.1151 13.9809L21.81 8.20419L15.9154 13.3914Z" fill="#137ABE"/>
<path d="M35.4854 33.9046L30.1803 28.1279L24.2857 33.433L29.5908 39.2097L35.4854 33.9046Z" fill="#137ABE"/>
<path d="M29.355 43.5717L19.6879 32.8436L22.3994 30.4857L15.5617 22.9407L18.2732 20.5828L11.4355 13.0378L22.1636 3.48852L25.5825 7.14317L31.4771 2.07382L34.8959 5.61058L37.1359 3.60642C36.6643 3.37063 36.0749 3.01696 35.6033 2.78117C32.1844 1.36647 28.5298 0.42334 24.6394 0.42334C11.0818 0.42334 0 11.3873 0 24.8269C0 38.2666 11.0818 49.2305 24.7573 49.2305C29.2371 49.2305 33.3633 48.0516 36.9001 46.0474C38.079 45.3401 39.14 44.6327 40.2011 43.9254L35.2496 38.3845L29.355 43.5717Z" fill="#137ABE"/>
<path d="M26.7614 10.562L30.6518 14.924L35.1317 11.0336L31.1234 6.6716L26.7614 10.562Z" fill="#137ABE"/>
<path d="M39.14 19.7576L35.1317 15.3956L30.7697 19.4039L34.7781 23.648L39.14 19.7576Z" fill="#137ABE"/>
<path d="M42.9126 28.9531L38.9043 24.5911L34.5423 28.4816L38.5506 32.9615L42.9126 28.9531Z" fill="#137ABE"/>
<path d="M43.1484 14.5703L40.2011 17.164L42.9126 20.1113L45.742 17.5176L43.1484 14.5703Z" fill="#137ABE"/>
<path d="M43.9736 25.7701L46.5672 28.7174L49.5145 26.1237L46.803 23.1764L43.9736 25.7701Z" fill="#137ABE"/>
<path d="M36.4285 8.55787L39.14 11.5052L41.9694 8.91154L39.3758 5.96425L36.4285 8.55787Z" fill="#137ABE"/>
<path d="M38.4327 37.3234L42.441 41.6854L46.803 37.795L42.7947 33.433L38.4327 37.3234Z" fill="#137ABE"/>
</svg>
