<svg width="82" height="26" viewBox="0 0 82 26" fill="none" xmlns="http://www.w3.org/2000/svg">
<path d="M76.3893 0.982422H71.2755C69.7294 0.982422 68.5402 1.45813 67.8266 3.00416L58.0747 25.2433H64.9724C64.9724 25.2433 66.1617 22.2702 66.3995 21.5566C67.1131 21.5566 73.8918 21.5566 74.8432 21.5566C75.0811 22.3891 75.6757 25.1244 75.6757 25.1244H81.8599L76.3893 0.982422ZM68.3023 16.5617C68.897 15.1346 70.9187 9.78294 70.9187 9.78294C70.9187 9.90186 71.5133 8.35583 71.7512 7.52335L72.2269 9.66401C72.2269 9.66401 73.5351 15.4914 73.7729 16.6806H68.3023V16.5617Z" fill="#3362AB"/>
<path d="M58.5508 17.2751C58.5508 22.27 54.0316 25.5999 47.0149 25.5999C44.0418 25.5999 41.1876 25.0053 39.6415 24.2917L40.5929 18.8211L41.4254 19.1779C43.5661 20.1293 44.9932 20.4861 47.6096 20.4861C49.5124 20.4861 51.5341 19.7726 51.5341 18.1076C51.5341 17.0373 50.7016 16.3237 48.0853 15.1344C45.5878 13.9452 42.2579 12.0424 42.2579 8.59352C42.2579 3.83649 46.896 0.625488 53.4369 0.625488C55.9344 0.625488 58.0751 1.10119 59.3832 1.69582L58.4318 6.92856L57.9561 6.45286C56.7669 5.97715 55.2208 5.50145 52.9612 5.50145C50.4638 5.62037 49.2745 6.69071 49.2745 7.64211C49.2745 8.71245 50.7016 9.54493 52.9612 10.6153C56.7669 12.3991 58.5508 14.4209 58.5508 17.2751Z" fill="#3362AB"/>
<path d="M0.514648 1.22035L0.633574 0.744644H10.8612C12.2883 0.744644 13.3586 1.22035 13.7154 2.76638L15.975 13.4697C13.7154 7.76127 8.48268 3.12316 0.514648 1.22035Z" fill="#F9B50B"/>
<path d="M30.3651 0.982207L20.0186 25.1242H13.002L7.05566 4.90676C11.337 7.64206 14.9048 11.9234 16.213 14.8965L16.9265 17.394L23.3485 0.863281H30.3651V0.982207Z" fill="#3362AB"/>
<path d="M33.1004 0.863281H39.6413L35.4789 25.1242H28.938L33.1004 0.863281Z" fill="#3362AB"/>
</svg>
