<svg width="50" height="50" viewBox="0 0 50 50" fill="none" xmlns="http://www.w3.org/2000/svg">
<path d="M49.667 24.8373C49.6619 38.3156 38.7302 49.237 25.2531 49.2305C11.776 49.2253 0.854702 38.295 0.859865 24.8166C0.865028 11.3434 11.7877 0.424631 25.2609 0.42334C38.7392 0.422049 49.6657 11.3485 49.667 24.8269V24.8373Z" fill="#F7931A"/>
<path d="M29.7116 20.0934C29.7116 23.212 24.8156 22.848 23.2576 22.848V17.3363C24.8156 17.3337 29.7051 16.8381 29.7051 20.0909L29.7116 20.0934ZM30.9946 28.6668C30.9946 32.0939 25.128 31.7041 23.2564 31.7053V25.6283C25.128 25.627 30.9959 25.0888 30.9959 28.6643L30.9946 28.6668ZM34.8566 18.8569C34.543 15.5873 31.72 14.4914 28.1575 14.1791V9.64453H25.3978V14.0603C24.6723 14.0603 23.9301 14.0745 23.1931 14.09V9.64582H20.4347V14.1791C19.8371 14.1907 19.2498 14.2023 18.6779 14.2023V14.1881H14.8701V17.1401C14.8701 17.1401 16.9083 17.1014 16.8747 17.1401C17.6453 17.0407 18.3539 17.5803 18.4624 18.3496V23.5127C18.5592 23.5127 18.6573 23.5192 18.7541 23.5321H18.4624V30.7695C18.4301 31.3078 17.9693 31.717 17.4323 31.6847H17.4297C17.4646 31.7157 15.4239 31.6847 15.4239 31.6847L14.8753 34.9814H18.4675C19.1362 34.9814 19.7932 34.993 20.4386 34.9981V39.5843H23.1957V35.0459C23.9521 35.0614 24.6853 35.0678 25.4003 35.0678V39.5856H28.1562V35.0072C32.803 34.7413 36.0455 33.5718 36.4482 29.2141C36.7735 25.7045 35.1225 24.1388 32.4893 23.5063C34.2435 22.675 35.2155 20.7646 34.8566 18.8569Z" fill="white"/>
</svg>
