<svg width="42" height="50" viewBox="0 0 42 50" fill="none" xmlns="http://www.w3.org/2000/svg">
<path d="M37.9715 12.623C37.9715 12.884 37.9715 13.1451 37.7105 13.4061C35.6225 23.8461 28.8365 27.2391 19.9625 27.2391H15.5254C14.4814 27.2391 13.4374 28.0221 13.4374 29.0661L11.0884 43.6822L10.5664 47.8582C10.5664 48.6412 11.0884 49.1632 11.6104 49.1632H19.7014C20.7454 49.1632 21.5284 48.3802 21.5284 47.5972V47.0752L23.0945 37.6791V37.1571C23.3555 36.1131 24.1385 35.5911 24.9215 35.5911H26.2265C34.0565 35.5911 40.0595 32.4591 41.6255 23.3241C42.4085 19.4091 41.8865 16.2771 40.0595 14.1891C39.5375 13.6671 38.7545 13.145 37.9715 12.623Z" fill="#2199D6"/>
<path d="M35.8836 11.8401C35.6226 11.8401 35.3616 11.5791 34.8396 11.5791C34.5786 11.5791 34.0565 11.3181 33.7955 11.3181C32.4905 11.0571 31.1855 11.0571 29.8805 11.0571H17.8745C17.6135 11.0571 17.3525 11.0571 17.0915 11.3181C16.5695 11.5791 16.0475 12.1011 16.0475 12.6231L13.4375 28.8052V29.3272C13.6985 28.2832 14.4815 27.5002 15.5255 27.5002H19.9625C28.8366 27.5002 35.6226 23.8462 37.7106 13.6671C37.7106 13.4061 37.7106 13.1451 37.9716 12.8841C37.4496 12.6231 36.9276 12.3621 36.4056 12.1011C36.1446 11.8401 35.8836 11.8401 35.8836 11.8401Z" fill="#252C5E"/>
<path d="M16.0478 12.623C16.0478 12.101 16.5697 11.579 17.0917 11.318C17.3527 11.318 17.6138 11.057 17.8748 11.057H29.8808C31.1858 11.057 32.7518 11.057 33.7958 11.318C34.0568 11.318 34.5788 11.318 34.8398 11.579C35.1008 11.579 35.3618 11.84 35.8838 11.84C36.1448 11.84 36.1448 11.84 36.4058 12.101C36.9278 12.362 37.4498 12.623 37.9718 12.884C38.4938 8.96899 37.9718 6.35897 35.8838 4.00996C33.5348 1.39996 29.3588 0.355957 24.1388 0.355957H8.73972C7.69571 0.355957 6.6517 1.13895 6.6517 2.18296L0.387695 42.3771C0.387695 43.1601 0.909697 43.9431 1.6927 43.9431H11.0887L13.4377 28.8051L16.0478 12.623Z" fill="#2C3E8B"/>
</svg>
