<svg width="47" height="72" viewBox="0 0 47 72" fill="none" xmlns="http://www.w3.org/2000/svg">
<circle cx="42" cy="3" r="3" fill="white" fill-opacity="0.11"/>
<circle cx="34" cy="11" r="3" fill="white" fill-opacity="0.11"/>
<ellipse cx="25" cy="18.5" rx="3" ry="2.5" fill="white" fill-opacity="0.11"/>
<ellipse cx="17.5" cy="27" rx="2.5" ry="3" fill="white" fill-opacity="0.11"/>
<circle cx="10" cy="35" r="3" fill="white" fill-opacity="0.11"/>
<circle cx="2.5" cy="44.5" r="2.5" fill="white" fill-opacity="0.11"/>
<ellipse cx="42" cy="18.5" rx="3" ry="2.5" fill="white" fill-opacity="0.11"/>
<ellipse cx="33" cy="26.5" rx="4" ry="3.5" fill="white" fill-opacity="0.11"/>
<circle cx="26" cy="35" r="3" fill="white" fill-opacity="0.11"/>
<circle cx="19" cy="44" r="3" fill="white" fill-opacity="0.11"/>
<circle cx="11" cy="53" r="3" fill="white" fill-opacity="0.11"/>
<circle cx="42" cy="35" r="3" fill="white" fill-opacity="0.11"/>
<ellipse cx="34" cy="44.5" rx="3" ry="2.5" fill="white" fill-opacity="0.11"/>
<ellipse cx="26.5" cy="53" rx="2.5" ry="3" fill="white" fill-opacity="0.11"/>
<ellipse cx="19.5" cy="61" rx="3.5" ry="3" fill="white" fill-opacity="0.11"/>
<circle cx="44" cy="53" r="3" fill="white" fill-opacity="0.11"/>
<circle cx="37" cy="60" r="3" fill="white" fill-opacity="0.11"/>
<ellipse cx="29" cy="69.5" rx="3" ry="2.5" fill="white" fill-opacity="0.11"/>
</svg>
